<?xml version="1.0" encoding="UTF-8"?>
<svg id="Layer_2" data-name="Layer 2" xmlns="http://www.w3.org/2000/svg" xmlns:xlink="http://www.w3.org/1999/xlink" viewBox="0 0 1249.24 1249.24">
  <defs>
    <style>
      .cls-1 {
        fill: url(#linear-gradient);
      }

      .cls-2 {
        fill: #f4f4f4;
      }

      .cls-3 {
        fill: #fff;
      }

      .cls-4 {
        fill: #dbdbdb;
      }

      .cls-5 {
        fill: #a8a8a8;
      }

      .cls-6 {
        fill: url(#linear-gradient-2);
      }
    </style>
    <linearGradient id="linear-gradient" x1="412.94" y1="1046.05" x2="847.4" y2="1046.05" gradientUnits="userSpaceOnUse">
      <stop offset="0" stop-color="#a1a1a1"/>
      <stop offset=".06" stop-color="#b2b2b2"/>
      <stop offset=".19" stop-color="#d3d3d3"/>
      <stop offset=".31" stop-color="#ebebeb"/>
      <stop offset=".43" stop-color="#fafafa"/>
      <stop offset=".52" stop-color="#fff"/>
      <stop offset=".64" stop-color="#fbfbfb"/>
      <stop offset=".75" stop-color="#f0f0f0"/>
      <stop offset=".86" stop-color="#dedede"/>
      <stop offset=".96" stop-color="#c5c5c4"/>
      <stop offset="1" stop-color="#babab9"/>
    </linearGradient>
    <linearGradient id="linear-gradient-2" x1="636.17" y1="1275.38" x2="636.17" y2="824.19" gradientUnits="userSpaceOnUse">
      <stop offset="0" stop-color="#fff"/>
      <stop offset=".24" stop-color="#fbfbfb"/>
      <stop offset=".48" stop-color="#efefef"/>
      <stop offset=".71" stop-color="#dcdcdb"/>
      <stop offset=".95" stop-color="#c1c1c0"/>
      <stop offset="1" stop-color="#babab9"/>
    </linearGradient>
  </defs>
  <g id="Layer_1-2" data-name="Layer 1">
    <g>
      <rect class="cls-4" width="1249.24" height="1248.73"/>
      <path class="cls-1" d="m847.4,1127.71c-143.89-51.01-289.4-49.26-434.46,0v-136.2c146.02-37.36,290.76-34.91,434.46,0v136.2Z"/>
      <path class="cls-6" d="m786.3,875.53c-10.86-.06,8.71,138,18.76,171.11,22.91,75.5,303.29,139.43,305.37,189.52.54,13.06,0,13.07,0,13.07H161.68l88.34-84.96,67.22-17.43,35.75-16.89c6.88-3.25,13.4-7.21,19.46-11.81l73.47-55.76s23.05-28.81,21.13-72.38-1.92-114.48-1.92-114.48h321.18Z"/>
      <path class="cls-5" d="m404.6,662.83s-50.28-93.71-59.12-108.27,6.63-64.52,0-74.92c-6.63-10.41-8.84-162.33,44.2-208.12,53.04-45.79,83.97-58.27,83.97-58.27,13.13-11.33,100.51-43.24,137.24-37.46,110.47,17.39,92.09,11.69,112.48,10.41,46.9,7.56,82.71,20.19,77.17,50.92,17.66-9.09,31.7-9.19,46.59,1.11-4.11,8.69-4.63,14.4,0,18.73,0,0,57.46,2.08,57.46,145.68s-10.73,187.72-26.52,195.63c-15.79,7.91-44.9,36.03-44.9,36.03,0,0,7.33-250.31-63.38-248.31-70.72,2-122.55,37.61-293.91,0-37.57-8.25-91.15,226.9-71.26,276.85Z"/>
      <path class="cls-2" d="m398.81,750.84s30.45,149.29,107.01,195.63c119.54,72.36,201.63,10.99,201.63,10.99,0,0,95.38-85.47,111.02-135.86,13.97-45.01,18.88-70.76,18.88-70.76,0,0,12.59,0,20.98-10.41,8.39-10.41,10.49-77,16.79-95.74s10.49-49.95-10.49-47.87c-20.98,2.08-31.47,37.46-31.47,37.46,0,0,19.05-62.95,6.46-100.41-12.59-37.46-4.36-116.04-54.72-147.26-50.36-31.22-114.48-20.81-145.37-10.41-30.89,10.41-95.93,4.16-135.8-10.41-39.87-14.57-84.42,51.67-90.71,82.89-6.29,31.22-16.31,160.61-14.2,185.58l2.1,24.97s-14.69-66.6-27.28-70.76c-12.59-4.16-35.67-4.16-31.47,45.79,4.2,49.95,9.29,11.28,27.28,104.06,10.49,54.11,29.38,12.49,29.38,12.49Z"/>
      <path class="cls-3" d="m412.7,992.51s-18.3,107.61-30.01,110.64c-11.71,3.04,129.99,72.81,182.08,79.52,0,0,31.3-54.17,66.37-70.55,0,0-211.21-71.67-218.44-119.61Z"/>
      <path class="cls-3" d="m847.79,991.51s19.23,107.4,30.85,110.31c11.62,2.91-127.76,74.2-179.2,81.48,0,0-31.53-53.83-66.37-69.84,0,0,208.09-73.94,214.72-121.95Z"/>
    </g>
  </g>
</svg>