<?xml version="1.0" encoding="UTF-8"?>
<svg xmlns="http://www.w3.org/2000/svg" xmlns:xlink="http://www.w3.org/1999/xlink" viewBox="0 0 1248.53 1249.24">
  <defs>
    <style>
      .cls-1 {
        fill: url(#linear-gradient);
      }

      .cls-2 {
        fill: #f9f7f7;
      }

      .cls-3 {
        fill: #eaeaea;
      }

      .cls-4 {
        fill: #dbdbdb;
      }

      .cls-5 {
        fill: #a8a8a8;
      }

      .cls-6 {
        fill: url(#radial-gradient-2);
      }

      .cls-6, .cls-7 {
        mix-blend-mode: darken;
      }

      .cls-8 {
        fill: url(#linear-gradient-2);
      }

      .cls-9 {
        isolation: isolate;
      }

      .cls-7 {
        fill: url(#radial-gradient);
      }
    </style>
    <linearGradient id="linear-gradient" x1="388.27" y1="1037.06" x2="842.28" y2="1037.06" gradientUnits="userSpaceOnUse">
      <stop offset="0" stop-color="#a1a1a1"/>
      <stop offset=".06" stop-color="#b2b2b2"/>
      <stop offset=".19" stop-color="#d3d3d3"/>
      <stop offset=".31" stop-color="#ebebeb"/>
      <stop offset=".43" stop-color="#fafafa"/>
      <stop offset=".52" stop-color="#fff"/>
      <stop offset=".64" stop-color="#fbfbfb"/>
      <stop offset=".75" stop-color="#f0f0f0"/>
      <stop offset=".86" stop-color="#dedede"/>
      <stop offset=".96" stop-color="#c5c5c4"/>
      <stop offset="1" stop-color="#babab9"/>
    </linearGradient>
    <linearGradient id="linear-gradient-2" x1="624.27" y1="1276.53" x2="624.27" y2="805.37" gradientUnits="userSpaceOnUse">
      <stop offset="0" stop-color="#f2f2f2"/>
      <stop offset=".31" stop-color="#eee"/>
      <stop offset=".55" stop-color="#e5e5e5"/>
      <stop offset=".77" stop-color="#d5d5d4"/>
      <stop offset=".96" stop-color="#bebebd"/>
      <stop offset="1" stop-color="#babab9"/>
    </linearGradient>
    <radialGradient id="radial-gradient" cx="1587.79" cy="1453.06" fx="1587.79" fy="1453.06" r="244.05" gradientTransform="translate(-263.42 395.49) scale(.49)" gradientUnits="userSpaceOnUse">
      <stop offset="0" stop-color="#8a8a8a"/>
      <stop offset=".09" stop-color="#a0a0a0"/>
      <stop offset=".24" stop-color="#bdbdbd"/>
      <stop offset=".4" stop-color="#d4d4d4"/>
      <stop offset=".56" stop-color="#e5e5e5"/>
      <stop offset=".75" stop-color="#eee"/>
      <stop offset="1" stop-color="#f2f2f2"/>
    </radialGradient>
    <radialGradient id="radial-gradient-2" cx="1983.54" cy="1436.4" fx="1983.54" fy="1436.4" r="254.25" xlink:href="#radial-gradient"/>
  </defs>
  <g class="cls-9">
    <g id="Layer_2" data-name="Layer 2">
      <g id="Layer_1-2" data-name="Layer 1">
        <g>
          <rect class="cls-4" width="1248.53" height="1249.24"/>
          <g>
            <path class="cls-1" d="m842.28,1122.32c-150.37-53.27-302.43-51.45-454.01,0v-142.23c152.59-39.01,303.84-36.46,454.01,0v142.23Z"/>
            <path class="cls-8" d="m778.43,858.98c-11.35-.06,9.1,144.1,19.6,178.69,14.01,46.13,101.4,81.9,191.2,109.13,41.2,12.49,117.36,67.46,127.9,88.79,6.05,12.24,5.69,13.65,5.69,13.65H125.7l62.79-60.34c19.36-18.6,43.18-31.91,69.16-38.64l30.61-7.93,37.36-17.64c7.19-3.39,14-7.53,20.34-12.33l76.77-58.23s24.08-30.09,22.08-75.58c-2.01-45.5-2.01-119.54-2.01-119.54h335.63Z"/>
            <polygon class="cls-5" points="558.1 1247.99 673.58 1247.99 639.87 1205.51 593.05 1205.51 558.1 1247.99"/>
            <path class="cls-5" d="m604.92,1104.95l-63.68,63.71s12.7,52.81,41.2,47.47c2.7-.51-.21,2.46,12.75,8.26,13.72,6.15,31-.2,44-2.01,16.5-2.29,31.02-12.06,39.41-26.46l15.59-26.64-60.55-61.84-28.72-2.5Z"/>
            <path class="cls-7" d="m358.33,1104.32s104.88,86.2,178.54,94.94c5.92.7,21.23,1.25,23.72-2.5l57.71-89.32-215.03-70.58-44.95,67.46Z"/>
            <path class="cls-6" d="m879.14,1105.57s-104.88,86.2-178.54,94.94c-5.92.7-21.22,1.25-23.72-2.5l-57.71-89.32,215.03-70.58,44.95,67.46Z"/>
            <path class="cls-3" d="m380.6,726.46s31.82,155.9,111.83,204.3c124.92,75.57,210.7,11.47,210.7,11.47,0,0,99.67-89.26,116.01-141.87,14.6-47.01,19.73-73.89,19.73-73.89,0,0,13.16,0,21.93-10.87,8.77-10.87,10.96-80.41,17.54-99.97,6.58-19.56,10.96-52.16-10.96-49.99-21.93,2.17-32.89,39.12-32.89,39.12,0,0,41.4-142.14,28.25-181.26-13.16-39.12-26.05-44.76-78.68-77.36-52.62-32.6-78.82-58.43-111.1-47.56-32.28,10.87-183.07,17.71-224.74,2.5-41.66-15.21-80.82,112.31-87.4,144.91-6.58,32.6,17.58,132.7,19.77,158.78l2.2,26.08s-15.35-69.55-28.5-73.89c-13.16-4.35-37.28-4.35-32.89,47.81,4.39,52.16,9.71,11.78,28.51,108.67,10.96,56.51,30.7,13.04,30.7,13.04Z"/>
            <path class="cls-2" d="m388.02,981.14s-19.12,112.37-31.36,115.54c-12.24,3.17,135.84,76.03,190.28,83.04,0,0,32.71-56.57,69.35-73.68,0,0-220.72-74.85-228.27-124.91Z"/>
            <path class="cls-2" d="m842.69,980.1s20.1,112.16,32.24,115.2c12.14,3.04-133.51,77.49-187.26,85.08,0,0-32.94-56.22-69.36-72.93,0,0,217.45-77.21,224.39-127.35Z"/>
            <path class="cls-5" d="m382.02,596.87s-18.24-57.31-14.18-85.97c4.05-28.66-16.21-145.32,52.68-165.79,68.89-20.47,125.62,2.05,143.85-2.05,18.24-4.09,89.6-37.28,115.49-30.7,29.31,7.44,129.67,88.01,153.99,88.01,0,0,10.33,60.35,16.41,70.59,6.08,10.23-6.28,93.16-6.28,105.44s0,18.42,4.05,30.7c0,0,6.08-22.51,8.1-36.84,2.03-14.33,26.34-51.17,26.34-51.17,0,0,20.26-122.81,16.21-130.99-4.05-8.19,20.26-18.42-16.21-85.97-36.47-67.54-198.56-165.79-265.42-173.98-66.86-8.19-160.06,0-198.56,106.43,0,0-101.31,22.51-115.49,128.95-14.18,106.43,64.84,182.16,64.84,214.91s10.13,51.17,10.13,51.17l4.05-32.75Z"/>
          </g>
          <g>
            <path class="cls-5" d="m841.41,600.48c1.82,5.01-16.84-3.04-16.84-3.04,0,0-22.72,66.93-34.93,70.27-12.21,3.34-131.57,4.16-139.75-6.12-5.98-7.53-14.72-35.47-18.96-49.91-18.04-10.93-34.32-4.78-45.8,3.62-4.52,15.07-12.37,39.34-17.89,46.28-8.18,10.28-127.55,9.46-139.75,6.12-12.21-3.34-34.93-70.27-34.93-70.27,0,0-18.67,8.05-16.85,3.04,3.01-8.29-4.42-24.04-10.3-34.03,10.06,9.13,24.35,7.28,24.35,7.28,0,0,5.74-11.03,24.37-11.63,47.86-1.52,133.16-8.11,181.46,12.67,15.43,2.16,18.03,1.54,25.96,0,48.32-20.78,133.61-14.19,181.46-12.67,18.64.6,24.38,11.63,24.38,11.63,0,0,14.27,1.85,24.33-7.28-5.88,9.99-13.31,25.73-10.3,34.03Z"/>
            <path class="cls-3" d="m564.34,577.15s-58.68-16.24-142.33-2.5c-39.44,6.48,7.49,81.2,8.74,82.45,1.25,1.25,68.67,11.24,126.1-1.25,18.14-3.94,24.97-79.95,7.49-78.7Z"/>
            <path class="cls-3" d="m653.62,577.15s58.68-16.24,142.33-2.5c39.44,6.48-7.49,81.2-8.74,82.45-1.25,1.25-68.67,11.24-126.1-1.25-18.14-3.94-24.97-79.95-7.49-78.7Z"/>
          </g>
          <path class="cls-5" d="m849.83,559.15c-1.57,3-3.5,5.4-5.61,7.31,4.38-7.43,7.89-11.68,5.61-7.31Z"/>
          <path class="cls-5" d="m357.91,566.45c-2.11-1.91-4.03-4.31-5.61-7.31-2.28-4.37,1.22-.12,5.61,7.31Z"/>
        </g>
      </g>
    </g>
  </g>
</svg>