<?xml version="1.0" encoding="UTF-8"?>
<svg id="Layer_2" data-name="Layer 2" xmlns="http://www.w3.org/2000/svg" xmlns:xlink="http://www.w3.org/1999/xlink" viewBox="0 0 1251.06 1249.24">
  <defs>
    <style>
      .cls-1 {
        fill: url(#linear-gradient);
      }

      .cls-2 {
        fill: #f4f4f4;
      }

      .cls-3 {
        fill: #a0a0a0;
      }

      .cls-4 {
        fill: #dbdbdb;
      }

      .cls-5 {
        fill: #a8a8a8;
      }
    </style>
    <linearGradient id="linear-gradient" x1="609.53" y1="1279.73" x2="609.53" y2="753.33" gradientUnits="userSpaceOnUse">
      <stop offset="0" stop-color="#fff"/>
      <stop offset=".24" stop-color="#fbfbfb"/>
      <stop offset=".48" stop-color="#efefef"/>
      <stop offset=".71" stop-color="#dcdcdb"/>
      <stop offset=".95" stop-color="#c1c1c0"/>
      <stop offset="1" stop-color="#babab9"/>
    </linearGradient>
  </defs>
  <g id="Layer_1-2" data-name="Layer 1">
    <g>
      <g>
        <rect class="cls-4" width="1251.06" height="1248.2"/>
        <ellipse class="cls-3" cx="612.45" cy="750.01" rx="356.53" ry="356.31"/>
        <path class="cls-1" d="m763.1,813.24s-57.93,205.21,18.59,274.47c15.9,14.39,71.4,33.25,71.4,33.25l4.16,15.75s-.47-23.41,14.29-8.09c14.76,15.32,59.04,22.98,59.04,22.98l83.03,45.95s51.66,28.72,51.66,40.21v11.49H153.8l84.87-74.67,64.58-15.32s22.14-26.8,33.21-22.98l11.07,3.83,19.87-18.74s84.69-38.95,104.5-70.53c37.32-59.47,18.62-210.75,18.62-210.75l272.57-26.85Z"/>
        <path class="cls-2" d="m431.27,774.29s-28.96,49.67,94.1,163.87c11.01,10.22,35.76,41.34,47.6,45.88,43.2,16.57,66.69,5.41,90.86-1.76,19.34-5.74,45.43-36.09,45.43-36.09,0,0,102.4-78.64,104.24-118.74,1.85-40.09,14.46-53.16,14.46-53.16,0,0,2.8-5.31,13.1-.38,17.98,8.6,28.52-25.97,31.85-64.03,2.54-29.1-13.58-66.33-32.03-64.59-18.45,1.74-10.99,4.71-10.99,4.71-.23-2.06,1.49-36.59-5.43-63.55-10.49-40.87-9.41-91.08-53.69-117.23-44.28-26.15-85.72-73.09-112.88-64.37-27.16,8.72-99.31,59.14-134.36,46.94-35.06-12.2-58.29,47.5-70.11,71.47-14.51,29.43-23.99,132.49-22.14,153.41l1.85,20.92s-12.92-55.78-23.99-59.27c-11.07-3.49-31.37-3.49-27.68,38.35,3.69,41.84-7.09,14.52,23.99,87.16,18.2,42.53,25.83,10.46,25.83,10.46Z"/>
      </g>
      <path class="cls-5" d="m798.22,763.7s.5,2.06,1.02,5.56c1.51,10.3,3.12,33.08-7.73,52.68-14.54,26.26-48.08,60.52-48.08,60.52,0,0-48.08,130.18,0,164.44,48.08,34.26,131.95,61.67,131.95,61.67,0,0-3.35-61.67,19.01-84.5,22.36-22.84,52.56-42.25,52.56-42.25,0,0,41.38-43.39,20.13-52.53-21.25-9.14,12.3-21.7,12.3-21.7l-23.48-17.13s35.78-7.99,23.48-25.12c-12.3-17.13,35.78-74.23,35.78-74.23,0,0,21.25-26.26-14.54-86.79-35.78-60.52-22.36-115.34-22.36-115.34,0,0-12.3-46.82-29.07-100.49-16.77-53.67-54.79-115.34-88.34-141.6-33.55-26.26-64.3-85.65-117.97-92.5-18.86-2.41-54.23,4.57-54.23,4.57,0,0-92.92-44.85-150.4-23.41-57.48,21.44-147.05,78.22-218.62,167.3-71.57,89.07-25.72,122.19-25.72,122.19,0,0-16.77,5.71-23.48-27.41,0,0-17.47,34.28,0,61.67,0,0-90.58,99.35-64.86,150.74,25.72,51.39,23.48,18.27,23.48,18.27,0,0-61.4,59.38-44.73,105.06,5.04,13.81-4.85,23.14-.98,31.02,6.78,13.78,18.92,24.01,33.4,28.36l16.2,46.62c17.18,49.43,53.11,89.73,99.7,111.8l121.17,57.41s-16.77-39.97,11.18-84.5c27.96-44.54,44.52-110.42,22.87-136.55-36.12-43.59-75.97-96.52-70.95-150.08,2.44-26.11-10.43-36.66-9.51-67.66,1.12-37.62,19.63,6.86,22.31-6,5.02-24.09,7.12-68.77,19.62-80.51,41.38-38.83,24.43-10.3,71.57-52.53,63.74-57.1,15.66-7.99,63.74-57.1,45.37-46.34,92.81-68.52,92.81-68.52,0,0,22.28,45.74,91.7,66.23,41.13,12.14-24.27,170.23,31.31,173.58,2.43.15,4.41-6.94,11.91-10,29.42-12.01,34.06,16.43,37.82,49.14,2.45,21.27-1.48,42.81-11.31,61.73-.13.26-.27.51-.4.77-8.05,15.37-41.46,7.36-40.26,17.13Z"/>
    </g>
  </g>
</svg>