<?xml version="1.0" encoding="UTF-8"?>
<svg id="Layer_2" data-name="Layer 2" xmlns="http://www.w3.org/2000/svg" xmlns:xlink="http://www.w3.org/1999/xlink" viewBox="0 0 1248.53 1249.24">
  <defs>
    <style>
      .cls-1 {
        fill: url(#linear-gradient);
      }

      .cls-2 {
        fill: #f4f4f4;
      }

      .cls-3 {
        fill: #a0a0a0;
      }

      .cls-4 {
        fill: #dbdbdb;
      }
    </style>
    <linearGradient id="linear-gradient" x1="596.51" y1="1279.1" x2="596.51" y2="763.62" gradientUnits="userSpaceOnUse">
      <stop offset="0" stop-color="#fff"/>
      <stop offset=".24" stop-color="#fbfbfb"/>
      <stop offset=".48" stop-color="#efefef"/>
      <stop offset=".71" stop-color="#dcdcdb"/>
      <stop offset=".95" stop-color="#c1c1c0"/>
      <stop offset="1" stop-color="#babab9"/>
    </linearGradient>
  </defs>
  <g id="Layer_1-2" data-name="Layer 1">
    <g>
      <g>
        <rect class="cls-4" width="1248.53" height="1248.53"/>
        <path class="cls-1" d="m746.8,822.28s-56.69,200.95,18.19,268.78c15.56,14.1,69.87,32.56,69.87,32.56l4.07,15.43s-.46-22.93,13.98-7.93c14.45,15,57.78,22.5,57.78,22.5l81.25,45s50.56,28.12,50.56,39.37v11.25H150.52l83.06-73.12,63.2-15s21.67-26.25,32.5-22.5l10.83,3.75,19.45-18.35s82.88-38.14,102.27-69.07c36.53-58.24,18.22-206.38,18.22-206.38l266.75-26.29Z"/>
        <path class="cls-2" d="m422.05,773.48s-28.34,48.64,92.09,160.46c10.77,10,35,40.49,46.59,44.93,42.28,16.22,65.26,5.3,88.92-1.72,18.93-5.62,44.46-35.34,44.46-35.34,0,0,100.21-77.01,102.02-116.27,1.81-39.26,14.15-52.06,14.15-52.06,0,0,2.74-5.2,12.82-.38,17.59,8.42,27.92-25.43,31.16-62.7,2.48-28.5-13.29-64.96-31.35-63.25-18.06,1.71-10.75,4.61-10.75,4.61-.23-2.02,1.45-35.83-5.31-62.23-10.26-40.02-9.21-89.19-52.55-114.8-43.34-25.61-83.89-71.57-110.47-63.03-26.58,8.54-110.11-13.96-144.41-25.91-34.31-11.95-44.12,118.39-55.69,141.86-14.2,28.82-23.48,129.74-21.67,150.22l1.81,20.48s-12.64-54.63-23.47-58.04c-10.83-3.41-30.7-3.41-27.08,37.56,3.61,40.97-6.94,14.22,23.47,85.35,17.81,41.65,25.28,10.24,25.28,10.24Z"/>
      </g>
      <path class="cls-3" d="m875.22,468.23c0-50.24-18.18-85.06-36.94-107.7-22.44-36.03-55.27-62.25-91.84-80.53,37.41,9.88,51.36,20.93,51.36,20.93-24.49-23.13-66.03-34.4-98.77-39.86-45.85-14.26-94.27-18.63-129.48-15.46,40.59-14.37,70.94-12.1,70.94-12.1-37.85-4.03-73.08,7.01-93.34,15.35-18.74,3.85-33.29,9.99-44.57,16.98,16.12-26.03,29.29-31.08,29.29-31.08-15.56,2.59-31.1,22.34-42.47,40.74-20.65,17.96-24.59,37.08-24.59,37.08,0,0-4.87-1.67-12.84-2.35-16.1-3.22-50.26-8.36-66.18,1.93,0,0,24.83-4.03,46.21-1.12-17.06,2.83-38.41,11.96-58.09,36.35-12.55,10.98-33.73,31.85-38.06,50.92,0,0,8.33-9.52,18.02-18.68-1.51,3.31-2.84,6.79-3.94,10.46-5.52,4.87-9.9,11.57-10.33,20.71,0,0,3.13-5.47,8.07-11.62-1.37,6.71-2.2,13.87-2.56,21.41-5.43,13.06-9.5,31.99-8.01,58.87,0,0,.8-22.55,7.87-44.8.24,9.8,1.12,20.07,2.55,30.64-1.96,11.15-3.12,26.12-1.68,45.37,0,0,1.05-16.82,3.84-31.37,17.19,99.52,74.87,217.79,74.87,217.79,0,0-14.64-38.78,14.64-109.87,2.23-5.41,4.29-11.32,6.19-17.59,8.44,12.63,15.32,19.69,15.32,19.69-5.77-7.06-10.66-14.2-14.82-21.36,3.46-11.69,6.4-24.62,8.91-38.08,20.21,37.74,49.04,58.37,49.04,58.37-25.3-21.69-39.59-46.31-46.83-71.01,2.08-12.68,3.81-25.62,5.26-38.28,19.55,47.85,56.55,74.33,56.55,74.33-33.8-28.98-47.95-63.19-51.88-95.83,12.4,21.39,28.48,41.03,45.72,58.51,37.1,52.35,79.15,88.33,79.15,88.33-24.29-24.29-43.77-47.52-59.34-69.53,48.35,43.05,98.15,68.85,98.15,68.85-56.16-34.88-94.17-69.99-119.71-102.76-20.47-36.31-30.26-68.56-33.94-95.82,1.08.51,2.16,1.01,3.23,1.52,6.4,32.85,27.52,72.73,50.1,95.56,55.63,65.24,135.27,106.49,135.27,106.49-38.46-23.88-68.37-47.87-91.62-71.14-13.14-17.19-31.92-49.18-40.54-98.98,5.39,21.59,15.2,47,33.07,69.65,4.05,14.73,10.11,26.84,19.08,32.49,0,0-6.59-6.88-12.46-24.69,5.89,6.51,12.47,12.73,19.95,18.44,0,0-10.55-8.82-22.75-28.09-9.21-36.39,6.78,24.09,36.31,31.37,0,0-21.18-11.16-40.98-58.22-.86-8.08-1.4-17.11-1.48-27.15,1.31.81,2.61,1.63,3.9,2.44,25.7,71.54,103.85,141.63,167.77,178.57-43.21-29.68-74.98-58.98-98.26-86.75,2.54,2.24,5.15,4.44,7.92,6.55,0,0-16.09-13.44-31.5-43.44-10.56-48.59,8.93,35.63,43.82,44.23,0,0-24.32-12.84-45.2-68.93,2.92,2.13,5.77,4.25,8.59,6.37,10.96,26.13,25.98,53.16,43.35,60.97,8.76,13.55,18.71,23.9,29.46,26.55,0,0-22.98-12.11-43.45-64.3,8.03,6.68,15.51,13.19,22.46,19.48,41.95,68.73,96.07,130.18,96.07,130.18-33.83-41.91-57.12-78.24-73.16-108.47,32.23,32.04,47.61,54.16,47.61,54.16-4.52-8.6-10.04-17.26-16.35-25.91,3.15,2.49,2.1,1.84-.56-.75-12.58-17.11-25.03-26.1-39.59-65.17,16.51,15.19,33.28,31.75,50.06,49.77,27.06,58.54,70.41,116.85,87.32,138.62,1.06,4.67.97,7.57,2.72,3.48,6.18,7.85,5.34,6.92.23-.56,3.47-8.72,12.57-45.18,36.42-180.34,7.56-42.85,6.26-79.84-1.61-111.63,10.39,27.74,13.02,50.78,13.02,50.78Zm-400.03-85.56c3.08,3.48,2.35,1.12,2.55,4.65-3.07-1.73-2.46-.73-2.55-4.65Zm58.17,91.42c-4.4-9.08-9.65-24.07-12.36-46.85.73.4,1.45.8,2.18,1.19,1.39,12.1,4.28,28.24,10.19,45.66Zm-11.49-65.8c0,1.11.02,2.93.12,5.39-.77-.48-1.55-.96-2.3-1.43-.1-1.65-.18-3.34-.25-5.06.81.37,1.6.73,2.43,1.1Zm-24.7-11.51c4.99,2.47,10.74,5.15,17.27,8.14.08,1.42.18,2.84.28,4.27-19.5-11.97-17.2-9.61-17.56-12.41Zm39.19,85.57c3.99,10.27,9.08,20.79,15.57,31.04-29.73-35.84-44.36-69.16-51.06-96.68,5.19,2.63,10.3,5.28,15.32,7.96,2.84,23.65,8.66,46.65,20.17,57.69Zm23.3-18.39c-1.96-5.56-3.88-11.54-5.75-17.92,1.67,1,3.33,2.01,4.97,3.01.16,4.8.41,9.81.77,14.91Zm-.98-38.9c-.06,3.68-.08,7.79-.04,12.22-2.93-1.95-5.81-3.86-8.66-5.72-.95-3.79-1.88-7.73-2.78-11.79,3.69,1.69,7.51,3.44,11.49,5.29Zm-19.4-.45c-.57-2.99-1.1-6.05-1.6-9.18.9.41,1.8.82,2.72,1.23-.88,2.95-1.17,1.22,1.21,9.44-.78-.5-1.56-1.01-2.33-1.5Zm3.19,14.67c8.3,4.81-.8-2.65,18.84,41.78.57,4.53,1.25,9.03,2.06,13.42-7.65-14.22-15.29-32.5-20.9-55.2Zm61.17,10.81c.17,9.86,1.04,11.6-2.31-1.67.77.55,1.54,1.11,2.31,1.67Zm-23.21-14.76c2.28,1.1.04-1.59,4.26,17.09-1.75-5.92-3.16-11.62-4.26-17.09Zm10.92,6.08c2.91,2.01-.31-2.19,9.11,24.99-1.39-1.01-2.78-2.02-4.16-3.02-1.85-6.89-3.52-14.21-4.94-21.97Zm8.71,34.62c1.72,1.21,3.42,2.41,5.11,3.61.45,4.93,1.01,9.89,1.71,14.78-2.39-5.68-4.68-11.81-6.82-18.39Zm9.35-3.03c-.22-4.55-.34-9.32-.34-14.36,1.9,5.78,4.15,12.31,6.73,19.16-2.13-1.61-4.26-3.21-6.39-4.8Zm5.85-14.4c4.74,3.53,9.54,7.18,14.4,10.95,1.86,6.29,4.67,15.32,8.3,25.55-4.86-3.92-9.76-7.78-14.68-11.57-2.76-7.53-5.46-15.8-8.02-24.93Zm47.14,90.33c-7.7-6.86-20.97-21.96-33.77-51.9,4.92,3.79,9.68,7.55,14.27,11.27,5.38,13.71,11.97,28.26,19.5,40.63Zm-16.62-47.44c-2.6-7.65-5.11-16-7.5-25.15,2.1,1.67,4.2,3.37,6.32,5.08,18.7,40.87,26.67,41.13,1.18,20.07Zm41.49,37.16c-5.83-12.18-10.4-23.18-13.97-32.93.41.36.81.71,1.22,1.07,10.9,32,22.01,40.95,12.75,31.85Zm-7.82-44.69c-.28-1.08-.56-2.15-.83-3.25,15.83,11.63,30.01,23.89,42.7,36.45,11.39,37.83,24.18,38.47-41.87-33.2Zm85.64,105.38c10.14,11.93,20.24,24.4,30.22,37.46,0,0-12.51-17.86-33.23-44.62-5.43-13.25-9.15-24.24-11.65-32.81,50.84,63.06,68.87,125.69,73.5,145.01-28.92-42.9-47.24-78.13-58.85-105.05Z"/>
    </g>
  </g>
</svg>