<svg id="Capa_1" data-name="Capa 1" xmlns="http://www.w3.org/2000/svg" viewBox="0 0 252.64 332"><defs><style>.cls-1{fill:#e2057d;}.cls-2{fill:#8d114a;}</style></defs><title>Destino Al Exito Elementos Logo</title><path class="cls-1" d="M126.07,145.08c-10.22,50.82-36.2,82.31-103,130-44.26,31.57-8.92,57.42,21.38,54.55-1.59.18.83-.11,3.39-.43,29.1-4.09,38-6.93,50.92-10.44,54.67-14.81,79.6-31.41,108.35-66.79s43.35-76.27,43.35-123.49c0-46.77-15-81.33-44.67-103.32-.72-.53-1.46-1-2.18-1.52l-2.53-1.79C172.09,2.28,135.87-2.65,90.79,7,64.7,12.57,63.2,14.24,19,26.39c-.15,12.28,0,110.71,0,121.42,0,17.22,54,45,93.89-11l-.09,0-35.43,4.84,32.17-30.83L90.13,70.69,129.4,91.76l32.17-30.83-7.91,43.85,39.27,21.07-44.15,6-7.91,43.85L126.1,145.16Z"/><path class="cls-2" d="M39.6,332c-17.53,0-33.79-8.51-38.3-20.61-6-16.15,10.26-30.82,20.5-38.13C89.21,225.18,114,193.93,123.93,144.65a2.18,2.18,0,0,1,4.14-.44l0,.07,11.82,24.45,6.71-37.24a2.18,2.18,0,0,1,1.85-1.77L186,124.6l-33.34-17.9a2.2,2.2,0,0,1-1.12-2.31l6.72-37.24L130.91,93.33a2.18,2.18,0,0,1-2.55.35L95,75.79l16.46,34.07a2.18,2.18,0,0,1-.46,2.53L83.7,138.57l28.77-3.93a2,2,0,0,1,1,.09,2.27,2.27,0,0,1,1.44,1.41,2.2,2.2,0,0,1-.26,2C84.81,180,50.12,172.86,40.2,169.68c-13.56-4.33-23.41-13.53-23.41-21.87,0-2.26,0-8.39,0-16.78,0-30.82-.1-94.95,0-104.66a2.18,2.18,0,0,1,1.6-2.08c16.68-4.59,27.07-7.62,35.42-10C67.26,10.31,74,8.34,90.34,4.85,136-4.92,172.66,0,202.3,20l2.57,1.82.82.57c.47.32.94.64,1.4,1,30.22,22.43,45.55,57.78,45.55,105.07,0,47.07-14.75,89.08-43.83,124.87-30.23,37.2-55.81,53-109.48,67.52l-3.6,1c-11.33,3.11-21.11,5.79-47.59,9.51l-.35.05-2.86.35-.24,0-.21,0h-.21C42.71,331.93,41.15,332,39.6,332Zm87.26-180.26c-11,47-36.91,78.28-102.53,125.08C8.41,288.18,1.68,299.92,5.39,309.87,9.6,321.15,27,329,44.15,327.42l.61-.08,2.81-.35c26.16-3.67,35.82-6.32,47-9.39l3.6-1c52.63-14.27,77.69-29.7,107.24-66.07,28.83-35.48,42.85-75.43,42.85-122.11,0-45.83-14.73-80-43.79-101.57-.41-.3-.83-.59-1.25-.87l-.88-.62-2.53-1.79C171.26,4.35,135.73-.39,91.25,9.12,75.09,12.58,68.38,14.54,55,18.43c-8.09,2.36-18.1,5.28-33.89,9.63-.1,13.77,0,73.55,0,103,0,8.4,0,14.53,0,16.79,0,5.5,7.62,13.64,20.37,17.71C64.81,173,89.36,163.31,108,139.66l-30.37,4.15a2.19,2.19,0,0,1-1.81-3.74l31-29.74L88.17,71.64a2.19,2.19,0,0,1,3-2.88L129,89.08l31-29.73a2.18,2.18,0,0,1,3.66,2l-7.63,42.3L194,123.93a2.18,2.18,0,0,1-.74,4.08l-42.58,5.82L143,176.12a2.18,2.18,0,0,1-4.11.56Z"/></svg>