<svg id="Capa_1" data-name="Capa 1" xmlns="http://www.w3.org/2000/svg" viewBox="0 0 223.95 273.26"><defs><style>.cls-1{fill:#8a1e80;}.cls-2{fill:#fbbc0b;}.cls-3{fill:#8d114a;}</style></defs><title>Destino Al Exito Elementos Logo</title><path class="cls-1" d="M28.45,268.87a2.17,2.17,0,0,1-1.19-.35c-14.31-9.33-18-21.84-18.65-30.69a49.14,49.14,0,0,1,7.55-29c11.62-18,29.75-27.85,48.94-38.24,24.89-13.48,53.09-28.76,74.21-65.57a2.18,2.18,0,0,1,3.93,1.87c-16.44,42.55-42.34,60.52-75.14,83.27l-2.86,2h0c-37.82,26.25-52.68,43.93-34.92,73.38a2.18,2.18,0,0,1-.35,2.7A2.21,2.21,0,0,1,28.45,268.87Zm98.24-138.31c-18.71,21.8-40.1,33.38-59.51,43.9s-36.34,19.67-47.35,36.77c-7.45,11.55-11.81,32,1.92,47-11.9-29.64,10.62-48.55,41-69.64l2.86-2C91.28,168.8,111.48,154.78,126.69,130.56ZM64,190.38h0Z"/><path class="cls-2" d="M4.52,216.32a2.19,2.19,0,0,1-2.1-1.58c-10.8-37.33,16.57-54.6,41.43-62.52,49.57-15.78,70.08-26.34,93.83-57.74a2.2,2.2,0,0,1,2.9-.53,2.17,2.17,0,0,1,.79,2.83c-20.93,41.7-56.39,57.71-84.89,70.58-2.46,1.11-4.89,2.2-7.27,3.3h0c-30.54,14-38.29,25.82-42.56,44a2.2,2.2,0,0,1-2.07,1.69Zm116.93-97.17c-18.24,16.54-39.37,25.48-76.28,37.23-30,9.56-43.54,26-40.33,48.94,6.89-19.09,20.31-28.41,42.55-38.63h0c2.38-1.1,4.82-2.2,7.29-3.31C77.18,153.22,102,142,121.45,119.15Z"/><path class="cls-1" d="M54.63,137.49c-8,0-13.44-2-16.47-5.91-4.35-5.68-3.26-14.7,3.32-27.58a2.19,2.19,0,0,1,4.07.47C47.83,113.79,55,119,67.48,120.38c15.47,1.72,33.06-3.1,50.88-13.94a2.18,2.18,0,0,1,2.72,3.36C108.58,123,93.91,130.67,72,135.33h0A85.39,85.39,0,0,1,54.63,137.49Zm16.94-4.29h0ZM43.15,110.67c-3.72,8.59-4.23,14.72-1.53,18.25,3.63,4.74,13.83,5.48,29.49,2.14,13-2.76,23.3-6.6,32.08-12.1-12.63,5-24.91,7-36.19,5.76C55.06,123.4,47.06,118.68,43.15,110.67Z"/><path class="cls-3" d="M50,89.06c0,5.51,7.63,13.64,20.38,17.72,23.28,7.44,47.83-2.21,66.48-25.87l-30.37,4.15a2.19,2.19,0,0,1-1.81-3.74l31-29.73L117,12.89A2.18,2.18,0,0,1,120,10l37.86,20.32L188.9.61a2.17,2.17,0,0,1,2.54-.35,2.2,2.2,0,0,1,1.12,2.31l-7.63,42.29L222.8,65.18a2.19,2.19,0,0,1-.74,4.09l-42.58,5.82-7.62,42.29a2.18,2.18,0,0,1-4.11.56L155.7,93c-11,47-36.91,78.27-102.53,125.08-15.92,11.36-22.65,23.09-18.94,33,4.21,11.29,21.59,19.15,38.76,17.56,2.64-.22,3.05,3.94.23,4.36l-.11,0h0c-1.56.14-3.12.21-4.67.21-17.53,0-33.79-8.51-38.3-20.61-6-16.16,10.26-30.82,20.5-38.13,67.4-48.08,92.22-79.33,102.13-128.61a2.18,2.18,0,0,1,4.14-.45l0,.08L168.75,110l6.72-37.24A2.19,2.19,0,0,1,177.32,71l37.49-5.12L181.47,48a2.2,2.2,0,0,1-1.12-2.31l6.72-37.24L159.75,34.59a2.2,2.2,0,0,1-2.55.35L123.86,17.05l16.46,34.07a2.17,2.17,0,0,1-.46,2.52L112.54,79.83l28.77-3.93a2.17,2.17,0,0,1,1,.08,2.29,2.29,0,0,1,1.44,1.41,2.19,2.19,0,0,1-.26,2C113.65,121.21,79,114.11,69,110.94,55.48,106.6,45.63,97.4,45.63,89.06A2.18,2.18,0,0,1,50,89.06Z"/></svg>