<?xml version="1.0" encoding="UTF-8"?>
<svg id="Layer_2" data-name="Layer 2" xmlns="http://www.w3.org/2000/svg" xmlns:xlink="http://www.w3.org/1999/xlink" viewBox="0 0 201 145">
  <defs>
    <style>
      .cls-1 {
        fill: none;
      }

      .cls-2 {
        clip-path: url(#clippath);
      }

      .cls-3 {
        fill: #f9bc15;
      }

      .cls-4 {
        fill: #8e1a4c;
      }

      .cls-5 {
        fill: #892780;
      }
    </style>
    <clipPath id="clippath">
      <rect class="cls-1" width="201" height="145"/>
    </clipPath>
  </defs>
  <g id="Layer_1-2" data-name="Layer 1">
    <g class="cls-2">
      <g>
        <g>
          <path class="cls-4" d="m20.22,146.13c0,1.6,2.22,3.97,5.93,5.15,6.77,2.16,13.91-.64,19.33-7.52l-8.83,1.21c-.35.05-.67-.2-.71-.55-.03-.2.04-.4.19-.54l9.02-8.65-5.43-11.25c-.16-.31-.03-.69.28-.85.19-.09.41-.09.59.01l11.01,5.91,9.03-8.64c.2-.19.5-.23.74-.1.24.13.37.4.33.67l-2.22,12.3,11.01,5.91c.31.17.42.56.25.86-.1.18-.27.3-.47.33l-12.38,1.69-2.22,12.3c-.06.34-.39.57-.74.51-.2-.04-.37-.17-.46-.35l-3.5-7.25c-3.2,13.67-10.73,22.76-29.82,36.38-4.63,3.3-6.59,6.72-5.51,9.6,1.22,3.28,6.28,5.57,11.27,5.11.77-.06.89,1.15.07,1.27h-.03c-.45.04-.91.06-1.36.06-5.1,0-9.83-2.47-11.14-5.99-1.74-4.7,2.98-8.96,5.96-11.09,19.6-13.98,26.82-23.07,29.7-37.4.07-.34.4-.57.74-.5.21.04.38.18.46.37v.02l3.44,7.13,1.95-10.83c.05-.27.27-.47.54-.51l10.9-1.49-9.7-5.2c-.24-.13-.37-.4-.33-.67l1.95-10.83-7.95,7.6c-.2.19-.5.23-.74.1l-9.7-5.2,4.79,9.91c.12.25.07.54-.13.73l-7.95,7.62,8.37-1.14c.1-.02.2,0,.29.02.2.06.35.22.42.41.07.19.04.41-.08.58-8.68,12.16-18.76,10.1-21.66,9.18-3.93-1.26-6.8-3.94-6.8-6.36,0-.35.28-.64.64-.64s.64.28.64.64h0Z"/>
          <g>
            <path class="cls-3" d="m79.03,178.23c-.28,0-.52-.18-.59-.45-3.06-10.57,4.69-15.46,11.73-17.7,14.03-4.47,19.84-7.46,26.56-16.34.19-.25.55-.32.82-.15.27.17.37.52.22.8-5.92,11.8-15.96,16.34-24.03,19.98-.7.31-1.38.62-2.06.93h0c-8.64,3.96-10.84,7.31-12.05,12.45-.07.27-.31.47-.59.48h-.02Zm33.1-27.51c-5.16,4.68-11.14,7.21-21.59,10.54-8.49,2.71-12.32,7.36-11.42,13.85,1.95-5.4,5.75-8.04,12.04-10.93h0c.67-.31,1.36-.62,2.06-.94,6.37-2.88,13.39-6.05,18.9-12.52Z"/>
            <path class="cls-4" d="m91.9,142.21c0,1.56,2.16,3.86,5.77,5.02,6.59,2.11,13.54-.63,18.82-7.32l-8.6,1.17c-.34.04-.65-.2-.69-.54-.03-.19.04-.39.18-.52l8.78-8.42-5.29-10.95c-.15-.3-.03-.68.27-.83.18-.09.4-.09.58.01l10.72,5.75,8.79-8.41c.19-.19.48-.23.72-.1.24.13.36.39.32.65l-2.16,11.97,10.72,5.75c.3.16.41.54.25.84-.09.17-.26.29-.46.32l-12.05,1.65-2.16,11.97c-.06.34-.38.56-.72.5-.19-.03-.36-.16-.45-.34l-3.41-7.06c-3.11,13.3-10.45,22.16-29.02,35.41-4.51,3.22-6.41,6.54-5.36,9.34,1.19,3.2,6.11,5.42,10.97,4.97.75-.06.86,1.12.07,1.23h-.03c-.44.04-.88.06-1.32.06-4.96,0-9.56-2.41-10.84-5.83-1.7-4.57,2.9-8.72,5.8-10.79,19.08-13.61,26.1-22.46,28.91-36.41.07-.33.39-.55.72-.49.2.04.37.17.45.36v.02l3.35,6.94,1.9-10.54c.05-.26.26-.46.52-.5l10.61-1.45-9.44-5.06c-.24-.13-.36-.39-.32-.65l1.9-10.54-7.73,7.4c-.19.19-.48.22-.72.1l-9.44-5.06,4.66,9.64c.12.24.06.53-.13.71l-7.73,7.41,8.14-1.11c.09-.01.19,0,.28.02.19.06.34.21.41.4.07.19.04.4-.07.57-8.45,11.84-18.25,9.83-21.09,8.93-3.83-1.23-6.62-3.83-6.62-6.19,0-.34.28-.62.62-.62s.62.28.62.62h0Z"/>
          </g>
          <path class="cls-4" d="m155.59,146.47c0,1.59,2.2,3.94,5.89,5.12,6.73,2.15,13.82-.64,19.21-7.48l-8.78,1.2c-.35.04-.66-.2-.71-.55-.03-.2.04-.4.19-.53l8.96-8.59-5.4-11.18c-.16-.31-.03-.69.28-.85.19-.09.41-.09.59.01l10.94,5.87,8.97-8.59c.2-.19.49-.23.73-.1.24.13.37.4.32.67l-2.2,12.22,10.94,5.87c.31.17.42.55.25.86-.1.18-.27.29-.47.32l-12.3,1.68-2.2,12.22c-.06.34-.39.57-.73.51-.2-.04-.37-.16-.46-.35l-3.48-7.21c-3.18,13.58-10.67,22.62-29.63,36.15-4.6,3.28-6.55,6.67-5.47,9.54,1.22,3.26,6.24,5.53,11.2,5.07.76-.06.88,1.14.07,1.26h-.03c-.45.04-.9.06-1.35.06-5.07,0-9.76-2.46-11.07-5.96-1.73-4.67,2.96-8.91,5.92-11.02,19.48-13.89,26.65-22.92,29.51-37.17.07-.34.4-.56.74-.5.2.04.37.18.46.37v.02l3.42,7.08,1.94-10.76c.05-.27.27-.47.53-.51l10.83-1.48-9.63-5.17c-.24-.13-.37-.4-.32-.67l1.94-10.76-7.89,7.55c-.2.19-.5.23-.74.1l-9.63-5.17,4.76,9.85c.12.25.07.54-.13.73l-7.89,7.57,8.31-1.14c.1-.01.2,0,.29.02.19.06.35.21.42.41.07.19.04.41-.08.58-8.62,12.08-18.64,10.03-21.53,9.12-3.91-1.25-6.75-3.91-6.75-6.32,0-.35.28-.63.63-.63s.63.28.63.63h0Z"/>
        </g>
        <path class="cls-4" d="m-45.41,146.47c0,1.59,2.2,3.94,5.89,5.12,6.73,2.15,13.82-.64,19.21-7.48l-8.78,1.2c-.35.04-.66-.2-.71-.55-.03-.2.04-.4.19-.53l8.96-8.59-5.4-11.18c-.16-.31-.03-.69.28-.85.19-.09.41-.09.59.01l10.94,5.87,8.97-8.59c.2-.19.49-.23.73-.1.24.13.37.4.32.67l-2.2,12.22,10.94,5.87c.31.17.42.55.25.86-.1.18-.27.29-.47.32l-12.3,1.68-2.2,12.22c-.06.34-.39.57-.73.51-.2-.04-.37-.16-.46-.35l-3.48-7.21c-3.18,13.58-10.67,22.62-29.63,36.15-4.6,3.28-6.55,6.67-5.47,9.54,1.22,3.26,6.24,5.53,11.2,5.07.76-.06.88,1.14.07,1.26h-.03c-.45.04-.9.06-1.35.06-5.07,0-9.76-2.46-11.07-5.96-1.73-4.67,2.96-8.91,5.92-11.02,19.48-13.89,26.65-22.92,29.51-37.17.07-.34.4-.56.74-.5.2.04.37.18.46.37v.02l3.42,7.08,1.94-10.76c.05-.27.27-.47.53-.51l10.83-1.48-9.63-5.17c-.24-.13-.37-.4-.32-.67l1.94-10.76-7.89,7.55c-.2.19-.5.23-.74.1l-9.63-5.17,4.76,9.85c.12.25.07.54-.13.73l-7.89,7.57,8.31-1.14c.1-.01.2,0,.29.02.19.06.35.21.42.41.07.19.04.41-.08.58-8.62,12.08-18.64,10.03-21.53,9.12-3.91-1.25-6.75-3.91-6.75-6.32,0-.35.28-.63.63-.63s.63.28.63.63h0Z"/>
        <g>
          <g>
            <path class="cls-5" d="m13.95,53.43c-.12,0-.24-.03-.35-.1-4.16-2.71-5.23-6.35-5.42-8.93-.16-2.97.6-5.92,2.2-8.43,3.38-5.23,8.65-8.1,14.23-11.12,7.24-3.92,15.44-8.36,21.58-19.07.17-.31.55-.42.86-.25.28.15.4.5.28.79-4.78,12.37-12.31,17.6-21.85,24.22l-.83.58h0c-11,7.63-15.32,12.78-10.16,21.34.15.25.11.58-.1.79-.12.12-.28.18-.44.18ZM42.52,13.2c-5.44,6.34-11.66,9.71-17.31,12.77-5.64,3.06-10.57,5.72-13.77,10.69-2.17,3.36-3.43,9.31.56,13.67-3.46-8.62,3.09-14.12,11.92-20.25l.83-.58c7.47-5.17,13.34-9.25,17.76-16.29Z"/>
            <path class="cls-3" d="m6.99,38.14c-.28,0-.53-.19-.61-.46-3.14-10.86,4.82-15.88,12.05-18.18,14.42-4.59,20.38-7.66,27.29-16.79.2-.26.56-.33.84-.15.28.17.38.53.23.82-6.09,12.13-16.4,16.78-24.69,20.53-.72.32-1.42.64-2.11.96h0c-8.88,4.07-11.14,7.51-12.38,12.8-.07.28-.31.48-.6.49h-.02ZM41,9.88c-5.3,4.81-11.45,7.41-22.18,10.83-8.72,2.78-12.66,7.56-11.73,14.23,2-5.55,5.91-8.26,12.37-11.23h0c.69-.32,1.4-.64,2.12-.96,6.54-2.95,13.76-6.22,19.42-12.86Z"/>
            <path class="cls-5" d="m21.57,15.22c-2.33,0-3.91-.58-4.79-1.72-1.27-1.65-.95-4.28.97-8.02.16-.31.55-.44.86-.27.16.08.28.23.33.41.66,2.71,2.75,4.23,6.38,4.63,4.5.5,9.61-.9,14.8-4.05.3-.18.69-.09.87.21.15.24.12.56-.08.77-3.64,3.84-7.9,6.07-14.27,7.42h0c-1.66.38-3.35.59-5.05.63Zm-3.34-7.8c-1.08,2.5-1.23,4.28-.44,5.31,1.06,1.38,4.02,1.59,8.58.62,3.78-.8,6.78-1.92,9.33-3.52-3.67,1.45-7.24,2.04-10.53,1.68-3.47-.38-5.8-1.76-6.94-4.09Z"/>
            <path class="cls-4" d="m20.22,1.13c0,1.6,2.22,3.97,5.93,5.15,6.77,2.16,13.91-.64,19.33-7.52L36.65-.03c-.35.05-.67-.2-.71-.55-.03-.2.04-.4.19-.54l9.02-8.65-5.43-11.25c-.16-.31-.03-.69.28-.85.19-.09.41-.09.59.01l11.01,5.91,9.03-8.64c.2-.19.5-.23.74-.1.24.13.37.4.33.67l-2.22,12.3,11.01,5.91c.31.17.42.56.25.86-.1.18-.27.3-.47.33l-12.38,1.69-2.22,12.3c-.06.34-.39.57-.74.51-.2-.04-.37-.17-.46-.35l-3.5-7.25c-3.2,13.67-10.73,22.76-29.82,36.38-4.63,3.3-6.59,6.72-5.51,9.6,1.22,3.28,6.28,5.57,11.27,5.11.77-.06.89,1.15.07,1.27h-.03c-.45.04-.91.06-1.36.06-5.1,0-9.83-2.47-11.14-5.99-1.74-4.7,2.98-8.96,5.96-11.09C40.01,23.62,47.23,14.53,50.11.2c.07-.34.4-.57.74-.5.21.04.38.18.46.37v.02l3.44,7.13,1.95-10.83c.05-.27.27-.47.54-.51l10.9-1.49-9.7-5.2c-.24-.13-.37-.4-.33-.67l1.95-10.83-7.95,7.6c-.2.19-.5.23-.74.1l-9.7-5.2,4.79,9.91c.12.25.07.54-.13.73l-7.95,7.62,8.37-1.14c.1-.02.2,0,.29.02.2.06.35.22.42.41.07.19.04.41-.08.58-8.68,12.16-18.76,10.1-21.66,9.18-3.93-1.26-6.8-3.94-6.8-6.36,0-.35.28-.64.64-.64s.64.28.64.64h0Z"/>
          </g>
          <g>
            <path class="cls-5" d="m85.8,48.11c-.12,0-.24-.03-.34-.1-4.05-2.64-5.1-6.18-5.28-8.69-.16-2.89.59-5.76,2.14-8.21,3.29-5.1,8.42-7.88,13.85-10.82,7.05-3.82,15.03-8.14,21.01-18.56.16-.3.54-.41.84-.24.27.15.39.48.27.77-4.65,12.04-11.98,17.13-21.27,23.57l-.81.57h0c-10.71,7.43-14.91,12.44-9.88,20.77.15.25.11.56-.1.76-.12.11-.27.18-.43.18Zm27.81-39.15c-5.3,6.17-11.35,9.45-16.85,12.43-5.49,2.98-10.29,5.57-13.4,10.41-2.11,3.27-3.34,9.06.54,13.3-3.37-8.39,3.01-13.74,11.61-19.71l.81-.57c7.27-5.04,12.98-9,17.29-15.86Z"/>
            <path class="cls-3" d="m79.03,33.23c-.28,0-.52-.18-.59-.45-3.06-10.57,4.69-15.46,11.73-17.7,14.03-4.47,19.84-7.46,26.56-16.34.19-.25.55-.32.82-.15.27.17.37.52.22.8-5.92,11.8-15.96,16.34-24.03,19.98-.7.31-1.38.62-2.06.93h0c-8.64,3.96-10.84,7.31-12.05,12.45-.07.27-.31.47-.59.48h-.02ZM112.13,5.73c-5.16,4.68-11.14,7.21-21.59,10.54-8.49,2.71-12.32,7.36-11.42,13.85,1.95-5.4,5.75-8.04,12.04-10.93h0c.67-.31,1.36-.62,2.06-.94,6.37-2.88,13.39-6.05,18.9-12.52Z"/>
            <path class="cls-5" d="m93.22,10.92c-2.26,0-3.8-.57-4.66-1.67-1.23-1.61-.92-4.16.94-7.81.16-.3.53-.42.84-.27.16.08.27.23.32.4.65,2.64,2.67,4.11,6.21,4.5,4.38.49,9.36-.88,14.4-3.95.29-.18.67-.09.85.2.15.24.11.55-.08.75-3.54,3.74-7.69,5.91-13.89,7.23h0c-1.61.37-3.26.58-4.92.61Zm-3.25-7.59c-1.05,2.43-1.2,4.17-.43,5.17,1.03,1.34,3.91,1.55,8.35.61,3.68-.78,6.6-1.87,9.08-3.43-3.58,1.42-7.05,1.98-10.24,1.63-3.38-.37-5.64-1.71-6.75-3.98Z"/>
            <path class="cls-4" d="m91.9-2.79c0,1.56,2.16,3.86,5.77,5.02,6.59,2.11,13.54-.63,18.82-7.32l-8.6,1.17c-.34.04-.65-.2-.69-.54-.03-.19.04-.39.18-.52l8.78-8.42-5.29-10.95c-.15-.3-.03-.68.27-.83.18-.09.4-.09.58.01l10.72,5.75,8.79-8.41c.19-.19.48-.23.72-.1.24.13.36.39.32.65l-2.16,11.97,10.72,5.75c.3.16.41.54.25.84-.09.17-.26.29-.46.32l-12.05,1.65-2.16,11.97c-.06.34-.38.56-.72.5-.19-.03-.36-.16-.45-.34l-3.41-7.06c-3.11,13.3-10.45,22.16-29.02,35.41-4.51,3.22-6.41,6.54-5.36,9.34,1.19,3.2,6.11,5.42,10.97,4.97.75-.06.86,1.12.07,1.23h-.03c-.44.04-.88.06-1.32.06-4.96,0-9.56-2.41-10.84-5.83-1.7-4.57,2.9-8.72,5.8-10.79,19.08-13.61,26.1-22.46,28.91-36.41.07-.33.39-.55.72-.49.2.04.37.17.45.36v.02l3.35,6.94,1.9-10.54c.05-.26.26-.46.52-.5l10.61-1.45-9.44-5.06c-.24-.13-.36-.39-.32-.65l1.9-10.54-7.73,7.4c-.19.19-.48.22-.72.1l-9.44-5.06,4.66,9.64c.12.24.06.53-.13.71l-7.73,7.41,8.14-1.11c.09-.01.19,0,.28.02.19.06.34.21.41.4.07.19.04.4-.07.57-8.45,11.84-18.25,9.83-21.09,8.93-3.83-1.23-6.62-3.83-6.62-6.19,0-.34.28-.62.62-.62s.62.28.62.62h0Z"/>
          </g>
          <g>
            <path class="cls-5" d="m149.36,53.43c-.12,0-.24-.03-.34-.1-4.14-2.7-5.2-6.31-5.39-8.87-.16-2.95.6-5.88,2.18-8.38,3.36-5.2,8.6-8.05,14.14-11.05,7.19-3.9,15.34-8.31,21.44-18.95.17-.3.55-.42.86-.25.28.15.4.49.28.79-4.75,12.3-12.24,17.49-21.71,24.06l-.83.58h0c-10.93,7.59-15.22,12.69-10.09,21.21.15.25.11.58-.1.78-.12.11-.27.18-.44.18Zm28.39-39.97c-5.41,6.3-11.59,9.65-17.2,12.69s-10.5,5.68-13.68,10.63c-2.15,3.34-3.41,9.25.55,13.58-3.44-8.57,3.07-14.03,11.85-20.12l.83-.58c7.42-5.14,13.26-9.19,17.65-16.19Z"/>
            <path class="cls-3" d="m142.45,38.25c-.28,0-.53-.19-.61-.46-3.12-10.79,4.79-15.78,11.97-18.07,14.32-4.56,20.25-7.61,27.11-16.69.2-.26.56-.32.84-.15.28.17.38.53.23.82-6.05,12.05-16.3,16.68-24.53,20.4-.71.32-1.41.64-2.1.95h0c-8.83,4.05-11.06,7.46-12.3,12.71-.07.28-.31.48-.6.49h-.02Zm33.79-28.08c-5.27,4.78-11.38,7.36-22.04,10.76-8.67,2.76-12.58,7.51-11.65,14.14,1.99-5.52,5.87-8.21,12.3-11.16h0c.69-.32,1.39-.64,2.11-.96,6.5-2.94,13.67-6.18,19.29-12.78Z"/>
            <path class="cls-5" d="m156.93,15.47c-2.31,0-3.88-.58-4.76-1.71-1.26-1.64-.94-4.25.96-7.97.16-.31.54-.43.85-.27.16.08.28.23.32.41.66,2.69,2.73,4.2,6.34,4.6,4.47.5,9.55-.9,14.7-4.03.3-.18.68-.09.87.21.15.24.12.56-.08.76-3.61,3.81-7.85,6.03-14.18,7.38h0c-1.65.38-3.33.59-5.02.62Zm-3.32-7.75c-1.07,2.48-1.22,4.25-.44,5.27,1.05,1.37,4,1.58,8.52.62,3.76-.8,6.73-1.91,9.27-3.5-3.65,1.44-7.2,2.02-10.46,1.66-3.45-.38-5.76-1.75-6.89-4.06Z"/>
            <path class="cls-4" d="m155.59,1.47c0,1.59,2.2,3.94,5.89,5.12,6.73,2.15,13.82-.64,19.21-7.48l-8.78,1.2c-.35.04-.66-.2-.71-.55-.03-.2.04-.4.19-.53l8.96-8.59-5.4-11.18c-.16-.31-.03-.69.28-.85.19-.09.41-.09.59.01l10.94,5.87,8.97-8.59c.2-.19.49-.23.73-.1.24.13.37.4.32.67l-2.2,12.22,10.94,5.87c.31.17.42.55.25.86-.1.18-.27.29-.47.32l-12.3,1.68-2.2,12.22c-.06.34-.39.57-.73.51-.2-.04-.37-.16-.46-.35l-3.48-7.21c-3.18,13.58-10.67,22.62-29.63,36.15-4.6,3.28-6.55,6.67-5.47,9.54,1.22,3.26,6.24,5.53,11.2,5.07.76-.06.88,1.14.07,1.26h-.03c-.45.04-.9.06-1.35.06-5.07,0-9.76-2.46-11.07-5.96-1.73-4.67,2.96-8.91,5.92-11.02,19.48-13.89,26.65-22.92,29.51-37.17.07-.34.4-.56.74-.5.2.04.37.18.46.37v.02l3.42,7.08,1.94-10.76c.05-.27.27-.47.53-.51l10.83-1.48-9.63-5.17c-.24-.13-.37-.4-.32-.67l1.94-10.76-7.89,7.55c-.2.19-.5.23-.74.1l-9.63-5.17,4.76,9.85c.12.25.07.54-.13.73l-7.89,7.57,8.31-1.14c.1-.01.2,0,.29.02.19.06.35.21.42.41.07.19.04.41-.08.58-8.62,12.08-18.64,10.03-21.53,9.12-3.91-1.25-6.75-3.91-6.75-6.32,0-.35.28-.63.63-.63s.63.28.63.63h0Z"/>
          </g>
          <g>
            <path class="cls-5" d="m11.61,127.5c-.13,0-.27-.04-.38-.11-4.56-2.98-5.74-6.96-5.95-9.79-.18-3.26.66-6.49,2.41-9.25,3.71-5.74,9.49-8.88,15.61-12.19,7.94-4.3,16.93-9.17,23.66-20.91.19-.34.61-.46.94-.27.31.17.44.54.31.87-5.24,13.57-13.5,19.3-23.96,26.55l-.91.64h0c-12.06,8.37-16.8,14.01-11.13,23.4.17.28.12.64-.11.86-.13.13-.3.2-.48.2Zm31.33-44.1c-5.97,6.95-12.79,10.64-18.98,14-6.19,3.35-11.59,6.27-15.1,11.72-2.38,3.68-3.77,10.2.61,14.99-3.79-9.45,3.39-15.48,13.07-22.21l.91-.64c8.19-5.67,14.63-10.14,19.48-17.87Z"/>
            <path class="cls-3" d="m3.98,110.75c-.31,0-.58-.21-.67-.5-3.44-11.9,5.28-17.41,13.21-19.94,15.81-5.03,22.35-8.4,29.92-18.41.22-.29.62-.36.92-.17.31.19.42.58.25.9-6.67,13.3-17.98,18.4-27.07,22.51-.78.35-1.56.7-2.32,1.05h0c-9.74,4.46-12.21,8.23-13.57,14.03-.07.31-.34.53-.66.54h-.02Zm37.29-30.98c-5.82,5.27-12.55,8.12-24.32,11.87-9.57,3.05-13.88,8.29-12.86,15.61,2.2-6.09,6.48-9.06,13.57-12.32h0c.76-.35,1.54-.7,2.32-1.06,7.17-3.24,15.09-6.82,21.29-14.1Z"/>
            <path class="cls-5" d="m19.96,85.61c-2.55,0-4.29-.64-5.25-1.88-1.39-1.81-1.04-4.69,1.06-8.79.18-.34.6-.48.94-.3.18.09.31.26.36.45.73,2.97,3.01,4.63,6.99,5.07,4.93.55,10.54-.99,16.22-4.45.33-.2.76-.1.96.23.16.27.13.61-.09.84-3.99,4.21-8.66,6.65-15.65,8.14h0c-1.82.42-3.67.65-5.54.69Zm-3.66-8.55c-1.19,2.74-1.35,4.69-.49,5.82,1.16,1.51,4.41,1.75,9.4.68,4.15-.88,7.43-2.1,10.23-3.86-4.03,1.59-7.94,2.23-11.54,1.84-3.81-.42-6.36-1.93-7.6-4.48Z"/>
            <path class="cls-4" d="m18.48,70.17c0,1.76,2.43,4.35,6.5,5.65,7.42,2.37,15.25-.7,21.2-8.25l-9.68,1.32c-.38.05-.73-.22-.78-.6-.03-.22.05-.44.21-.59l9.88-9.48-5.96-12.34c-.17-.34-.04-.76.31-.93.21-.1.45-.1.65.01l12.07,6.48,9.9-9.47c.22-.21.54-.25.81-.11.26.14.41.44.36.74l-2.43,13.48,12.08,6.48c.34.18.46.61.28.95-.11.19-.3.33-.51.36l-13.58,1.86-2.43,13.48c-.07.38-.43.63-.81.56-.22-.04-.41-.18-.5-.38l-3.84-7.95c-3.51,14.99-11.77,24.96-32.69,39.88-5.08,3.62-7.22,7.36-6.04,10.52,1.34,3.6,6.88,6.11,12.36,5.6.84-.07.97,1.26.07,1.39h-.04c-.5.04-.99.07-1.49.07-5.59,0-10.77-2.71-12.21-6.57-1.91-5.15,3.27-9.83,6.54-12.16,21.49-15.33,29.41-25.3,32.57-41.01.07-.38.44-.62.82-.55.22.04.41.2.5.41v.03l3.78,7.82,2.14-11.87c.06-.29.29-.52.59-.56l11.95-1.63-10.63-5.7c-.26-.14-.41-.44-.36-.74l2.14-11.87-8.71,8.34c-.22.21-.55.25-.81.11l-10.63-5.7,5.25,10.86c.13.27.07.6-.15.8l-8.71,8.35,9.17-1.25c.11-.02.22,0,.32.03.21.07.38.24.46.45.08.21.05.45-.08.64-9.51,13.34-20.56,11.07-23.75,10.06-4.31-1.38-7.45-4.32-7.45-6.98,0-.38.31-.7.7-.7s.7.31.7.7h0Z"/>
          </g>
          <g>
            <path class="cls-5" d="m91.01,110.23c-.09,0-.18-.03-.26-.08-3.16-2.06-3.97-4.82-4.12-6.77-.12-2.26.46-4.49,1.67-6.4,2.56-3.97,6.57-6.15,10.8-8.44,5.49-2.98,11.72-6.35,16.38-14.47.13-.23.42-.32.65-.19.21.12.31.38.21.6-3.63,9.39-9.35,13.36-16.59,18.38l-.63.44h0c-8.35,5.79-11.63,9.7-7.71,16.2.12.19.08.44-.08.6-.09.09-.21.14-.34.14Zm21.68-30.53c-4.13,4.81-8.85,7.37-13.14,9.69-4.28,2.32-8.02,4.34-10.45,8.12-1.64,2.55-2.61,7.06.42,10.37-2.63-6.54,2.34-10.72,9.05-15.37l.63-.44c5.67-3.93,10.12-7.02,13.48-12.37Z"/>
            <path class="cls-3" d="m85.73,98.63c-.21,0-.4-.14-.46-.35-2.38-8.24,3.66-12.05,9.14-13.8,10.94-3.48,15.47-5.81,20.71-12.74.15-.2.43-.25.64-.12.21.13.29.4.17.62-4.62,9.2-12.45,12.74-18.74,15.58-.54.25-1.08.49-1.6.73h0c-6.74,3.09-8.45,5.7-9.39,9.71-.05.21-.24.37-.46.37h-.01Zm25.81-21.45c-4.03,3.65-8.69,5.62-16.84,8.22-6.62,2.11-9.61,5.74-8.9,10.8,1.52-4.21,4.48-6.27,9.39-8.53h0c.53-.24,1.06-.49,1.61-.73,4.97-2.24,10.44-4.72,14.74-9.76Z"/>
            <path class="cls-5" d="m96.79,81.23c-1.77,0-2.97-.44-3.64-1.3-.96-1.25-.72-3.24.73-6.09.12-.24.41-.33.65-.21.12.06.21.18.25.31.5,2.06,2.09,3.21,4.84,3.51,3.41.38,7.3-.68,11.23-3.08.23-.14.52-.07.66.16.11.19.09.42-.06.58-2.76,2.91-6,4.61-10.83,5.64h0c-1.26.29-2.54.45-3.83.48Zm-2.53-5.92c-.82,1.9-.93,3.25-.34,4.03.8,1.05,3.05,1.21,6.51.47,2.87-.61,5.14-1.46,7.08-2.67-2.79,1.1-5.5,1.55-7.99,1.27-2.64-.29-4.4-1.33-5.26-3.1Z"/>
            <path class="cls-4" d="m95.77,70.54c0,1.22,1.68,3.01,4.5,3.91,5.14,1.64,10.56-.49,14.67-5.71l-6.7.92c-.26.03-.51-.15-.54-.42-.02-.15.03-.3.14-.41l6.84-6.56-4.12-8.54c-.12-.24-.02-.53.21-.65.14-.07.31-.07.45,0l8.36,4.49,6.85-6.56c.15-.15.38-.18.56-.08.18.1.28.3.25.51l-1.68,9.33,8.36,4.49c.23.13.32.42.19.66-.07.13-.2.23-.36.25l-9.4,1.28-1.68,9.33c-.05.26-.3.44-.56.39-.15-.03-.28-.13-.35-.26l-2.66-5.5c-2.43,10.37-8.15,17.28-22.63,27.61-3.51,2.51-5,5.1-4.18,7.28.93,2.49,4.77,4.23,8.56,3.88.58-.05.67.87.05.96h-.02c-.34.03-.69.05-1.03.05-3.87,0-7.46-1.88-8.45-4.55-1.32-3.57,2.26-6.8,4.52-8.42,14.88-10.61,20.36-17.51,22.54-28.39.05-.26.3-.43.56-.38.16.03.29.14.35.28v.02l2.61,5.41,1.48-8.22c.04-.2.2-.36.41-.39l8.28-1.13-7.36-3.95c-.18-.1-.28-.3-.25-.51l1.48-8.22-6.03,5.77c-.15.14-.38.18-.56.08l-7.36-3.95,3.63,7.52c.09.19.05.41-.1.56l-6.03,5.78,6.35-.87c.07-.01.15,0,.22.02.15.05.27.16.32.31.05.15.03.31-.06.44-6.59,9.23-14.23,7.66-16.44,6.96-2.98-.96-5.16-2.99-5.16-4.83,0-.27.22-.48.48-.48s.48.22.48.48h0Z"/>
          </g>
          <g>
            <path class="cls-5" d="m149.36,123.8c-.12,0-.24-.03-.34-.1-4.14-2.7-5.2-6.31-5.39-8.87-.16-2.95.6-5.88,2.18-8.38,3.36-5.2,8.6-8.05,14.14-11.05,7.19-3.9,15.34-8.31,21.44-18.95.17-.3.55-.42.86-.25.28.15.4.49.28.79-4.75,12.3-12.24,17.49-21.71,24.06l-.83.58h0c-10.93,7.59-15.22,12.69-10.09,21.21.15.25.11.58-.1.78-.12.11-.27.18-.44.18Zm28.39-39.97c-5.41,6.3-11.59,9.65-17.2,12.69s-10.5,5.68-13.68,10.63c-2.15,3.34-3.41,9.25.55,13.58-3.44-8.57,3.07-14.03,11.85-20.12l.83-.58c7.42-5.14,13.26-9.19,17.65-16.19Z"/>
            <path class="cls-3" d="m142.45,108.62c-.28,0-.53-.19-.61-.46-3.12-10.79,4.79-15.78,11.97-18.07,14.32-4.56,20.25-7.61,27.11-16.69.2-.26.56-.32.84-.15.28.17.38.53.23.82-6.05,12.05-16.3,16.68-24.53,20.4-.71.32-1.41.64-2.1.95h0c-8.83,4.05-11.06,7.46-12.3,12.71-.07.28-.31.48-.6.49h-.02Zm33.79-28.08c-5.27,4.78-11.38,7.36-22.04,10.76-8.67,2.76-12.58,7.51-11.65,14.14,1.99-5.52,5.87-8.21,12.3-11.16h0c.69-.32,1.39-.64,2.11-.96,6.5-2.94,13.67-6.18,19.29-12.78Z"/>
            <path class="cls-5" d="m156.93,85.84c-2.31,0-3.88-.58-4.76-1.71-1.26-1.64-.94-4.25.96-7.97.16-.31.54-.43.85-.27.16.08.28.23.32.41.66,2.69,2.73,4.2,6.34,4.6,4.47.5,9.55-.9,14.7-4.03.3-.18.68-.09.87.21.15.24.12.56-.08.76-3.61,3.81-7.85,6.03-14.18,7.38h0c-1.65.38-3.33.59-5.02.62Zm-3.32-7.75c-1.07,2.48-1.22,4.25-.44,5.27,1.05,1.37,4,1.58,8.52.62,3.76-.8,6.73-1.91,9.27-3.5-3.65,1.44-7.2,2.02-10.46,1.66-3.45-.38-5.76-1.75-6.89-4.06Z"/>
            <path class="cls-4" d="m155.59,71.84c0,1.59,2.2,3.94,5.89,5.12,6.73,2.15,13.82-.64,19.21-7.48l-8.78,1.2c-.35.04-.66-.2-.71-.55-.03-.2.04-.4.19-.53l8.96-8.59-5.4-11.18c-.16-.31-.03-.69.28-.85.19-.09.41-.09.59.01l10.94,5.87,8.97-8.59c.2-.19.49-.23.73-.1.24.13.37.4.32.67l-2.2,12.22,10.94,5.87c.31.17.42.55.25.86-.1.18-.27.29-.47.32l-12.3,1.68-2.2,12.22c-.06.34-.39.57-.73.51-.2-.04-.37-.16-.46-.35l-3.48-7.21c-3.18,13.58-10.67,22.62-29.63,36.15-4.6,3.28-6.55,6.67-5.47,9.54,1.22,3.26,6.24,5.53,11.2,5.07.76-.06.88,1.14.07,1.26h-.03c-.45.04-.9.06-1.35.06-5.07,0-9.76-2.46-11.07-5.96-1.73-4.67,2.96-8.91,5.92-11.02,19.48-13.89,26.65-22.92,29.51-37.17.07-.34.4-.56.74-.5.2.04.37.18.46.37v.02l3.42,7.08,1.94-10.76c.05-.27.27-.47.53-.51l10.83-1.48-9.63-5.17c-.24-.13-.37-.4-.32-.67l1.94-10.76-7.89,7.55c-.2.19-.5.23-.74.1l-9.63-5.17,4.76,9.85c.12.25.07.54-.13.73l-7.89,7.57,8.31-1.14c.1-.01.2,0,.29.02.19.06.35.21.42.41.07.19.04.41-.08.58-8.62,12.08-18.64,10.03-21.53,9.12-3.91-1.25-6.75-3.91-6.75-6.32,0-.35.28-.63.63-.63s.63.28.63.63h0Z"/>
          </g>
        </g>
        <g>
          <path class="cls-4" d="m-45.41,1.47c0,1.59,2.2,3.94,5.89,5.12,6.73,2.15,13.82-.64,19.21-7.48L-29.09.32c-.35.04-.66-.2-.71-.55-.03-.2.04-.4.19-.53l8.96-8.59-5.4-11.18c-.16-.31-.03-.69.28-.85.19-.09.41-.09.59.01l10.94,5.87,8.97-8.59c.2-.19.49-.23.73-.1.24.13.37.4.32.67l-2.2,12.22L4.53-5.43c.31.17.42.55.25.86-.1.18-.27.29-.47.32l-12.3,1.68-2.2,12.22c-.06.34-.39.57-.73.51-.2-.04-.37-.16-.46-.35l-3.48-7.21c-3.18,13.58-10.67,22.62-29.63,36.15-4.6,3.28-6.55,6.67-5.47,9.54,1.22,3.26,6.24,5.53,11.2,5.07.76-.06.88,1.14.07,1.26h-.03c-.45.04-.9.06-1.35.06-5.07,0-9.76-2.46-11.07-5.96-1.73-4.67,2.96-8.91,5.92-11.02C-25.75,23.82-18.57,14.79-15.71.55c.07-.34.4-.56.74-.5.2.04.37.18.46.37v.02l3.42,7.08,1.94-10.76c.05-.27.27-.47.53-.51l10.83-1.48-9.63-5.17c-.24-.13-.37-.4-.32-.67l1.94-10.76-7.89,7.55c-.2.19-.5.23-.74.1l-9.63-5.17,4.76,9.85c.12.25.07.54-.13.73l-7.89,7.57,8.31-1.14c.1-.01.2,0,.29.02.19.06.35.21.42.41.07.19.04.41-.08.58-8.62,12.08-18.64,10.03-21.53,9.12-3.91-1.25-6.75-3.91-6.75-6.32,0-.35.28-.63.63-.63s.63.28.63.63h0Z"/>
          <path class="cls-4" d="m-45.41,71.84c0,1.59,2.2,3.94,5.89,5.12,6.73,2.15,13.82-.64,19.21-7.48l-8.78,1.2c-.35.04-.66-.2-.71-.55-.03-.2.04-.4.19-.53l8.96-8.59-5.4-11.18c-.16-.31-.03-.69.28-.85.19-.09.41-.09.59.01l10.94,5.87,8.97-8.59c.2-.19.49-.23.73-.1.24.13.37.4.32.67l-2.2,12.22,10.94,5.87c.31.17.42.55.25.86-.1.18-.27.29-.47.32l-12.3,1.68-2.2,12.22c-.06.34-.39.57-.73.51-.2-.04-.37-.16-.46-.35l-3.48-7.21c-3.18,13.58-10.67,22.62-29.63,36.15-4.6,3.28-6.55,6.67-5.47,9.54,1.22,3.26,6.24,5.53,11.2,5.07.76-.06.88,1.14.07,1.26h-.03c-.45.04-.9.06-1.35.06-5.07,0-9.76-2.46-11.07-5.96-1.73-4.67,2.96-8.91,5.92-11.02,19.48-13.89,26.65-22.92,29.51-37.17.07-.34.4-.56.74-.5.2.04.37.18.46.37v.02l3.42,7.08,1.94-10.76c.05-.27.27-.47.53-.51l10.83-1.48-9.63-5.17c-.24-.13-.37-.4-.32-.67l1.94-10.76-7.89,7.55c-.2.19-.5.23-.74.1l-9.63-5.17,4.76,9.85c.12.25.07.54-.13.73l-7.89,7.57,8.31-1.14c.1-.01.2,0,.29.02.19.06.35.21.42.41.07.19.04.41-.08.58-8.62,12.08-18.64,10.03-21.53,9.12-3.91-1.25-6.75-3.91-6.75-6.32,0-.35.28-.63.63-.63s.63.28.63.63h0Z"/>
        </g>
      </g>
    </g>
  </g>
</svg>