<?xml version="1.0" encoding="UTF-8"?>
<svg id="Layer_2" data-name="Layer 2" xmlns="http://www.w3.org/2000/svg" xmlns:xlink="http://www.w3.org/1999/xlink" viewBox="0 0 1249.24 1249.24">
  <defs>
    <style>
      .cls-1 {
        fill: url(#linear-gradient);
      }

      .cls-2 {
        fill: #f4f4f4;
      }

      .cls-3 {
        fill: #a0a0a0;
      }

      .cls-4 {
        fill: #dbdbdb;
      }
    </style>
    <linearGradient id="linear-gradient" x1="596.85" y1="1279.1" x2="596.85" y2="763.62" gradientUnits="userSpaceOnUse">
      <stop offset="0" stop-color="#fff"/>
      <stop offset=".24" stop-color="#fbfbfb"/>
      <stop offset=".48" stop-color="#efefef"/>
      <stop offset=".71" stop-color="#dcdcdb"/>
      <stop offset=".95" stop-color="#c1c1c0"/>
      <stop offset="1" stop-color="#babab9"/>
    </linearGradient>
  </defs>
  <g id="Layer_1-2" data-name="Layer 1">
    <g>
      <g>
        <rect class="cls-4" width="1249.24" height="1248.53"/>
        <ellipse class="cls-3" cx="606.5" cy="691.06" rx="292.94" ry="332.73"/>
        <path class="cls-1" d="m747.21,822.28s-56.72,200.95,18.2,268.78c15.57,14.1,69.91,32.56,69.91,32.56l4.07,15.43s-.46-22.93,13.99-7.93c14.45,15,57.81,22.5,57.81,22.5l81.3,45s50.59,28.12,50.59,39.37v11.25H150.6l83.11-73.12,63.23-15s21.68-26.25,32.52-22.5l10.84,3.75,19.46-18.35s82.92-38.14,102.33-69.07c36.55-58.24,18.23-206.38,18.23-206.38l266.9-26.29Z"/>
        <path class="cls-2" d="m422.29,773.48s-28.35,48.64,92.14,160.46c10.78,10,35.02,40.49,46.61,44.93,42.3,16.22,65.3,5.3,88.97-1.72,18.94-5.62,44.48-35.34,44.48-35.34,0,0,100.27-77.01,102.07-116.27,1.81-39.26,14.16-52.06,14.16-52.06,0,0,2.74-5.2,12.83-.38,17.6,8.42,27.93-25.43,31.18-62.7,2.49-28.5-13.3-64.96-31.37-63.25-18.07,1.71-10.76,4.61-10.76,4.61-.23-2.02,1.46-35.83-5.32-62.23-10.27-40.02-9.22-89.19-52.58-114.8-43.36-25.61-83.93-71.57-110.53-63.03-26.59,8.54-97.24,57.91-131.56,45.96-34.33-11.95-57.08,46.51-68.65,69.99-14.21,28.82-23.49,129.74-21.68,150.22l1.81,20.49s-12.65-54.63-23.49-58.04c-10.84-3.41-30.71-3.41-27.1,37.56,3.61,40.97-6.95,14.22,23.49,85.35,17.82,41.65,25.29,10.24,25.29,10.24Z"/>
      </g>
      <path class="cls-3" d="m765.68,429.33c-5.5-5.25-14.64-2.07-15.67,5.46-6.1,44.48-33.86,158.86-159.38,212.39-140.12,59.75-243.16,132.15-264.42,147.56-2.56,1.86-4,4.88-3.82,8.04,1.85,32.48,17.49,208.96,138.08,170.35,10.24-3.28,16.9,10.51,8.03,16.58-.22.15-.45.3-.67.45-6.17,4.09-5.25,13.53,1.62,16.29,1.84.74,3.81,1.41,5.87,1.96,8.1,2.14,9.32,13.08,1.99,17.14-25.98,14.4-69.89,26.26-124.95-6.83-90.61-54.45-144.26-198.58-137.59-291.47,26.32-366.42,265.58-470.98,266.18-471.3,17.78-9.62,161.21-52.34,226.97,3.7,2.21,1.88,5.13,2.69,7.98,2.11,21.82-4.39,81.1-28.29,194.55,128.1,8.37,11.53,14.15,24.73,22.21,36.48,30.49,44.46,104.88,187.93,28.25,450.33-15.13,51.8-49.55,96.14-96.62,122.59-31.78,17.86-41.29,5.51-76.83-12.46-1.72-.87-3.66-1.19-5.56-.92l-19.23,2.79c-10.65,1.54-15-13.2-5.21-17.67,43.18-19.72,92.46-46.65,103.3-70.8,19.66-43.78,90.5-293.64-95.1-470.87Z"/>
      <path class="cls-3" d="m802.37,972.04s-24.04,20.82-76.91,25.62c0,0,65.7,1.6,86.53-12.81,20.83-14.41-9.61-12.81-9.61-12.81Z"/>
      <path class="cls-3" d="m837.35,992.02s-24.04,20.82-76.91,25.62c0,0,65.7,1.6,86.53-12.81,20.83-14.41-9.61-12.81-9.61-12.81Z"/>
      <path class="cls-3" d="m411.25,897.28s2.6,31.68,37.02,72.09c0,0-48.06-44.79-52.86-69.66-4.79-24.86,15.84-2.43,15.84-2.43Z"/>
      <path class="cls-3" d="m442.44,1011.07s64.09,1.6,99.35-24.02c0,0-57.68,41.64-83.32,38.44-25.64-3.2-16.02-14.41-16.02-14.41Z"/>
      <path class="cls-3" d="m437.82,1003.8s72.11-14.41,83.32-48.04c0,0-8.01,30.43-94.54,41.64,0,0,14.42,6.41,11.22,6.41Z"/>
      <path class="cls-3" d="m349.76,764.1s-7.5,228.48,122.43,211c0,0-114.08,45.67-146.16-194.77-5-37.46,23.74-16.23,23.74-16.23Z"/>
      <path class="cls-3" d="m397.9,793.44s-30.29,226.59,100.73,222.17c0,0-118.08,34.05-125.97-208.39-1.23-37.77,25.24-13.78,25.24-13.78Z"/>
      <path class="cls-3" d="m344.18,764.72s-30.29,226.59,100.73,222.17c0,0-118.08,34.05-125.97-208.39-1.23-37.77,25.24-13.78,25.24-13.78Z"/>
      <path class="cls-3" d="m856.51,723.45s35.9,225.77-95.18,224.6c0,0,118.89,31.11,120.76-211.44.29-37.79-25.57-13.15-25.57-13.15Z"/>
      <path class="cls-3" d="m828.57,825.92s-35.44,225.84-159.79,184.36c0,0,103.51,66.21,180.06-163.98,11.93-35.86-20.28-20.39-20.28-20.39Z"/>
      <path class="cls-3" d="m897.58,892.48s-130.9,187.47-224.47,95.72c0,0,64.01,104.85,233.76-68.51,26.44-27.01-9.28-27.2-9.28-27.2Z"/>
    </g>
  </g>
</svg>