<?xml version="1.0" encoding="UTF-8"?>
<svg id="Layer_2" data-name="Layer 2" xmlns="http://www.w3.org/2000/svg" xmlns:xlink="http://www.w3.org/1999/xlink" viewBox="0 0 1250.81 1249.24">
  <defs>
    <style>
      .cls-1 {
        fill: url(#linear-gradient);
      }

      .cls-2 {
        fill: #f4f4f4;
      }

      .cls-3 {
        fill: #babab9;
      }

      .cls-4 {
        fill: #dbdbdb;
      }

      .cls-5 {
        fill: #a8a8a8;
      }
    </style>
    <linearGradient id="linear-gradient" x1="641.27" y1="1260.39" x2="641.27" y2="805.12" gradientUnits="userSpaceOnUse">
      <stop offset="0" stop-color="#fff"/>
      <stop offset=".24" stop-color="#fbfbfb"/>
      <stop offset=".48" stop-color="#efefef"/>
      <stop offset=".71" stop-color="#dcdcdb"/>
      <stop offset=".95" stop-color="#c1c1c0"/>
      <stop offset="1" stop-color="#babab9"/>
    </linearGradient>
  </defs>
  <g id="Layer_1-2" data-name="Layer 1">
    <g>
      <rect class="cls-4" width="1250.81" height="1249.24"/>
      <path class="cls-1" d="m823.39,856.93s1.79,157.27,22.74,172.66c20.95,15.39,102.43,57.15,102.43,57.15l11.64-4.4s-6.98-4.4,11.64,13.19c18.62,17.58,74.49,26.38,74.49,26.38l104.76,52.75s65.18,32.97,65.18,46.16v13.19H66.27l107.08-85.73,81.48-17.58s27.94-30.77,41.9-26.38l13.97,4.4,100.1-63.25s27.94-29.07,25.61-73.03c-2.33-43.96-2.33-115.51-2.33-115.51h389.31Z"/>
      <path class="cls-5" d="m380.54,642.73s-23.81-65.34-22.09-93.51c8.31-135.6-15.83-135.18-19.4-146.67-24.94-80.25-.23-166.48,58.19-210.32,59.11-44.35,71.75-22.08,71.75-22.08,65.33-56.5,306.35-49.01,325.91,26.38,9.65,37.22,31.82-26.43,67.51,0,3.98,2.95,0,19.78,0,19.78,0,0,71.96,17.2,47.44,166.87-24.94,152.21-5.53,182.59-22.17,190.95-16.63,8.36-27.6,42.23-27.6,42.23,0,0-4.66-265.88-79.15-263.77-74.49,2.11-129.09,39.72-309.61,0-39.57-8.71-111.74,237.39-90.79,290.15Z"/>
      <path class="cls-2" d="m378.21,739.44s-2.33,129.69,118.72,206.62c121.05,76.93,216.5,13.19,216.5,13.19,0,0,128.04-94.52,130.36-145.07,2.33-50.56,20.95-74.73,20.95-74.73,0,0,13.97,0,23.28-10.99,9.31-10.99,11.64-81.33,18.62-101.11,6.98-19.78,11.64-52.75-11.64-50.56-23.28,2.2-34.92,39.57-34.92,39.57,0,0,4.66-61.55-9.31-101.11-13.97-39.57,11.64-127.49-44.23-160.46-55.87-32.97-127.01-21.98-161.28-10.99-34.27,10.99-106.43,4.4-150.66-10.99-44.23-15.39-81.48,57.15-88.46,90.12-6.98,32.97-30.27,167.05-27.94,193.43l2.33,26.38s-16.3-70.34-30.26-74.73c-13.97-4.4-39.57-4.4-34.92,48.36,4.66,52.75,10.31,11.91,30.26,109.9,11.64,57.15,32.59,13.19,32.59,13.19Z"/>
      <path class="cls-3" d="m1232.56,1247.61c4.66-46.16-135.73-102.09-186.23-127.53-50.51-25.43-88.46-48.36-109.41-57.15-20.95-8.79-65.85-23.51-65.85-23.51l-8.31,13.84s-42.24,93.2-239.25,93.2c-140.54,0-212.7-102.81-212.7-102.81-44.33,12.65-144.74,57.41-162.95,74.24-18.22,16.83-38.49,27.38-60.9,25.64-25.76-2-119.45,87.61-140.31,104.08h1185.93Z"/>
      <path class="cls-5" d="m364,587.96s16.63,119,13.85,138.37c-2.77,19.37-11.08,77.49-2.77,130.07,8.31,52.58,27.71,113.46,52.65,138.37,24.94,24.91,63.73,55.35,63.73,55.35,0,0-2.77-8.3,0-13.84,2.77-5.53,2.77,22.14,11.08,33.21,8.31,11.07,52.65,13.84,52.65,13.84,0,0,80.36,27.67,110.84,2.77,0,0,11.08,11.07,27.71,0,16.63-11.07,105.29-33.21,121.92-94.09,0,0,41.56-96.86,44.33-166.04,2.77-69.18,0-91.32,0-91.32,0,0-2.77-121.77,8.31-141.14,11.08-19.37-5.54-19.37-5.54-19.37,0,0-13.85,63.65-13.85,88.56s-19.4,119-41.56,130.07c-22.17,11.07-73.2,38.62-121.92,66.42-19.4,11.07-105.29,5.53-127.46,0-38.49-9.61-36.02-41.51-83.13-55.35,0,0-74.81-19.37-77.58-41.51-2.77-22.14-22.17-138.37-22.17-188.18s-11.08,13.84-11.08,13.84Z"/>
      <path class="cls-5" d="m623.39,753.26c-6.15,1.66-12.63,1.67-18.66-.39-15.28-5.21-43.94-10.87-74.48,3.36-38.33,17.86-33.25,49.81-80.36,41.51-47.1-8.3-41.56-8.3-41.56-8.3,0,0,11.08,33.21,36.02,44.28,24.94,11.07,122.14-18.75,138.54-24.91,30.48-11.44,80.36,0,80.36,0,0,0,69.27,30.98,110.84,25.45,41.56-5.53,63.73-44.28,63.73-44.28,0,0-52.65,30.44-80.36,16.6-27.71-13.84-44.33-53.49-74.81-56.25-21.23-1.93-45.11-.88-59.26,2.93Z"/>
    </g>
  </g>
</svg>