<svg id="Capa_1" data-name="Capa 1" xmlns="http://www.w3.org/2000/svg" viewBox="0 0 404.35 199"><defs><style>.cls-1{fill:#8a1e80;}.cls-2{fill:#e2057d;}.cls-3{fill:#0c80c3;}.cls-4{fill:#fbbc0b;}</style></defs><title>Destino Al Exito Elementos Logo</title><path class="cls-1" d="M271.68,127.69c0,7.36,3.85,12.44,10.3,12.44a13.62,13.62,0,0,0,2.63-.26c10.05-1.92,17.46-12.64,17.46-23.9,0-7.37-3.74-12.48-10.17-12.48a14.41,14.41,0,0,0-2.61.26C279.09,105.71,271.68,116.42,271.68,127.69ZM290.12,108a9.43,9.43,0,0,1,1.78-.18c5.24,0,5.8,5.67,5.8,8.11,0,9.5-6.11,18.12-13.91,19.62a9.81,9.81,0,0,1-1.81.18c-5.36,0-5.93-5.65-5.93-8.08C276.05,118.18,282.23,109.55,290.12,108Z"/><path class="cls-2" d="M285.41,84.82c-.73.21-1.45.44-2.17.68l2.13-.4Z"/><path class="cls-1" d="M316.43,91.53c-5-5.46-11.95-8.35-20.05-8.35v0h0a36.27,36.27,0,0,0-6.39.59l-.3,2a4.39,4.39,0,0,1-1.87,3c.81-.21,1.62-.4,2.46-.56a33,33,0,0,1,6.1-.6c14,0,23.15,10.15,23.15,25.08,0,17.62-13.76,38.62-36,42.88a33.07,33.07,0,0,1-6.11.6c-14,0-23.22-10.14-23.22-25.07a40.36,40.36,0,0,1,3-15,47.41,47.41,0,0,1,4.6-8.69,45.11,45.11,0,0,1,22.44-17.64l-14.25,2.73a50.52,50.52,0,0,0-6.85,6.17l.31-2a4.4,4.4,0,0,0-.62-3,4.35,4.35,0,0,1-1.18.41L244.34,97.4a4.56,4.56,0,0,1-.82.08,4.33,4.33,0,0,1-3-1.23,4.52,4.52,0,0,1-.76-1l-12.52,2.4v.06a4.39,4.39,0,0,1-3.5,3.62L210,104l-2.44.47-1.22.23a4.67,4.67,0,0,1-.83.08,4.33,4.33,0,0,1-3-1.23,4.19,4.19,0,0,1-.75-1L188,105.18a4.32,4.32,0,0,0-2.49,1.46,4.29,4.29,0,0,0-1.61-.48,40.28,40.28,0,0,1-16.7,7.22,56,56,0,0,1-8.61,1l-6.36,10.13-4.36-8.41a4.33,4.33,0,0,0-2.15-2,4.36,4.36,0,0,1-3.31,2.88l-17.54,3.36-3.43.66a4.36,4.36,0,0,1-.43,1.52,4.15,4.15,0,0,1-.32.53c.06.19.14.38.22.57l-2.24,14.61-24.49,4.69-1.21,8,19.8-3.79-2.34,15.41-19.88,3.81-1.44,9.27,25.93-5-1,6.5-4.63,6.67a4.37,4.37,0,0,0-.69,3.3l-39.34,7.54,9.83-64.17,3.83-.73v-4.45l-4.65.89a4.37,4.37,0,0,0-3.5,3.63l-4.34,28.35a.1.1,0,0,1,0,0,4.45,4.45,0,0,1,1.31,3.86l-1.35,8.73a4.4,4.4,0,0,1-2.45,3.3l-3,19.89a4.38,4.38,0,0,0,4.32,5,4.56,4.56,0,0,0,.82-.08l43.24-8.28.2-.06a1.1,1.1,0,0,0,.18,0l20.11-3.85a4.34,4.34,0,0,0,2.87-2l10.16-16,5.86,11.22a4.38,4.38,0,0,0,3.87,2.34,3.89,3.89,0,0,0,.83-.08l19.27-3.69a4.37,4.37,0,0,0,1.47-.57,4.1,4.1,0,0,0,1.56,0l17.39-3.33A4.37,4.37,0,0,0,200.7,171l7.07-46.16a4.25,4.25,0,0,0,2.51.27l8.9-1.7-6.47,42.32a4.36,4.36,0,0,0,4.31,5,4.47,4.47,0,0,0,.82-.08l17.39-3.33a4.35,4.35,0,0,0,3.49-3.63l6.95-45.39,6.6-1.26a44,44,0,0,0-2.42,14c0,8.47,2.6,15.76,7.51,21.09s12,8.35,20.08,8.35a37.13,37.13,0,0,0,6.93-.68,48.42,48.42,0,0,0,28.95-18c6.72-8.63,10.58-19.25,10.58-29.13C323.9,104.16,321.31,96.87,316.43,91.53ZM118.07,167.47a4.37,4.37,0,0,0-3-1.22,3.8,3.8,0,0,0-.82.08l-19.85,3.8,0-.11,16.86-3.23a4.37,4.37,0,0,0,3.5-3.63l2.31-15.25a3.74,3.74,0,0,0,.08-.82,4.36,4.36,0,0,0-2.15-3.77l4.5-.86a4.37,4.37,0,0,0,3.49-3.62l1.45-9.38L134.94,147l-15.67,22.6A4.32,4.32,0,0,0,118.07,167.47Zm38.62,10.44L147.32,160l-14.21,22.45-15.94,3.06,1-6.7,21.94-31.64-14.71-24.48a1.92,1.92,0,0,0,0-.22,4.48,4.48,0,0,0-.09-.82L144,118.05l7.87,15.2,11.94-19,19.65-3.77-24.86,34.85,16.2,26.92-.11.71a4.58,4.58,0,0,0,0,1.48ZM183,118.65l-7.18,46.86-12-20Zm13.39,51.65-16.13,3.09a4.46,4.46,0,0,0-.55-1.43l-.36-.6,9.47-61.89,17.39-3.34Zm45.43-55.72L234.41,163,217,166.35l7.41-48.44-15,2.87,2.42-15.73L259.2,96l-1.5,9.8a51.62,51.62,0,0,0-3.53,6.43Z"/><path class="cls-3" d="M69.76,79.86a19.82,19.82,0,0,0-3.72.38l-5.44,1L55.54,114.1l4.68-.9c12.24-2.35,19.64-11.42,19.64-22.62C79.86,83.18,75.75,79.86,69.76,79.86Zm-9,28.74L64.45,85l2.41-.46a15.45,15.45,0,0,1,2.9-.3c4.08,0,5.74,1.84,5.74,6.35C75.5,99.53,69.91,106.33,60.8,108.6Z"/><path class="cls-3" d="M396.88,8.3c-5-5.43-11.92-8.3-20-8.3V0h0a37.26,37.26,0,0,0-6.95.68,48.62,48.62,0,0,0-29,18,52.13,52.13,0,0,0-4.7,7.15L338,14.62a4.36,4.36,0,0,0-4.31-5,4.56,4.56,0,0,0-.82.08l-16.78,3.21a4.37,4.37,0,0,0-3.49,3.63l-3.17,20.66c-.17,1.08-.34,2.23-.5,3.41L289.13,20A4.34,4.34,0,0,0,286,18.65a4.54,4.54,0,0,0-.82.07l-7.71,1.48a4.37,4.37,0,0,0-3.36,3,3.92,3.92,0,0,0-.34-.37,4.38,4.38,0,0,0-3-1.23,4.47,4.47,0,0,0-.82.08l-17.38,3.33a4.38,4.38,0,0,0-2.63,1.63,4.35,4.35,0,0,0-2.22-.62,3.8,3.8,0,0,0-.82.08l-47.3,9.06a4.35,4.35,0,0,0-3.32,2.93,4.09,4.09,0,0,0-.86-.17l-1-.08c-2.21-.19-4.72-.41-7.58-.41a59.58,59.58,0,0,0-11.23,1.11c-9.07,1.74-16.34,5.58-21.21,10.91,0-.13,0-.24,0-.37a4.36,4.36,0,0,0-4.32-4.36h-.2a4.78,4.78,0,0,0-.76.09l-41.76,8a4.37,4.37,0,0,0-3.5,3.63l-3.36,21.81c-3.15-11.43-12.6-18.42-25.81-18.42v0h0a44,44,0,0,0-8.27.83L44.82,64.83a4.37,4.37,0,0,0-3.49,3.63L31.5,132.23a4.37,4.37,0,0,0,4.32,5,3.8,3.8,0,0,0,.82-.08l11.14-2.13,11.6-2.22,1.9-.4A56.91,56.91,0,0,0,83,122.75v-2.13a4.37,4.37,0,0,1,2.56-4l6.86-3.1a45.26,45.26,0,0,0,3.43-5.12l-.59,3.83L100,110.1l8.16-53,41.85-8-1.86,12.06a26.19,26.19,0,0,0-.57,3.58l-24.46,4.69-1.21,8,19.79-3.79L139.4,88.94l-19.87,3.81L118.1,102l25.37-4.86-1.73,11.24a4.31,4.31,0,0,0,.2,2.06l-.35,2.23-20.12,3.86v4c0,.14,0,.28,0,.42l3.43-.66,17.54-3.36a4.36,4.36,0,0,0,3.31-2.88,4.28,4.28,0,0,0,.16-.64,59.77,59.77,0,0,0,10.65,1c.69,0,1.38,0,2.06,0a56,56,0,0,0,8.61-1,40.28,40.28,0,0,0,16.7-7.22c7.37-5.57,11.85-13.51,11.85-22.21,0-14.9-11.87-18.68-16.34-20.1-1.19-.37-2.7-.84-3.92-1.28.4-.11.88-.22,1.45-.33a24.61,24.61,0,0,1,4.68-.42,32.65,32.65,0,0,1,9.52,1.45,4.1,4.1,0,0,0,1.3.2,4.35,4.35,0,0,0,4.31-3.7l.07-.45a4.37,4.37,0,0,0,1.14.17,4.56,4.56,0,0,0,.82-.08l8.88-1.7-6.46,42a4.33,4.33,0,0,0,.53,2.82,4.19,4.19,0,0,0,.75,1,4.33,4.33,0,0,0,3,1.23,4.67,4.67,0,0,0,.83-.08l1.22-.23L210,104l13.71-2.63a4.39,4.39,0,0,0,3.5-3.62v-.06l6.93-45,11.54-2.21-6.48,42a4.39,4.39,0,0,0,.53,2.82,4.52,4.52,0,0,0,.76,1,4.33,4.33,0,0,0,3,1.23,4.56,4.56,0,0,0,.82-.08l17.38-3.33a4.35,4.35,0,0,0,1.18-.41,4.41,4.41,0,0,0,2.16-2.57,4.38,4.38,0,0,0,3.39,1.61,3.8,3.8,0,0,0,.82-.08l.79-.15,14.25-2.73,1.88-.36a4.22,4.22,0,0,0,1.63-.68,4.39,4.39,0,0,0,1.87-3l.3-2,2.72-18c.17-1.06.33-2.19.49-3.36l19,19.93a4.37,4.37,0,0,0,3.16,1.36,4.65,4.65,0,0,0,.82-.08L324.65,82a4.37,4.37,0,0,0,3.49-3.63l3.34-21.64a27.56,27.56,0,0,0,6.37,11.85c5,5.41,11.94,8.28,20,8.28a37.55,37.55,0,0,0,7-.68,48.53,48.53,0,0,0,28.92-18c6.72-8.6,10.58-19.16,10.58-29C404.35,20.85,401.77,13.6,396.88,8.3ZM58.56,128.54,35.82,132.9l9.82-63.78L67.25,65a40,40,0,0,1,7.45-.74c14.2,0,22.62,9,22.62,23C97.32,104.74,84.32,123.6,58.56,128.54ZM144,92.63a4.56,4.56,0,0,0-.82.08l-19.82,3.8v-.05l16.85-3.23a4.36,4.36,0,0,0,3.5-3.63L146,74.45a4.49,4.49,0,0,0,.08-.83A4.34,4.34,0,0,0,144,69.9l3.56-.69c1,13.36,11.73,16.73,15.38,17.86q1,.32,1.86.57c1.21.37,2.61.79,3.57,1.17a10.7,10.7,0,0,1-2.84.89,20.51,20.51,0,0,1-3.94.34,43.39,43.39,0,0,1-11.76-1.87,4.31,4.31,0,0,0-1.23-.18,4.39,4.39,0,0,0-4.31,3.7l-.15,1Zm37.61-35.17a29.39,29.39,0,0,0-5.5.49c-5.14,1-6.65,2.63-6.65,4.73,0,2.55,2.65,3.47,8.62,5.33s13.29,5.2,13.29,15.94-8.76,22-25,25.14a52.5,52.5,0,0,1-9.84.93,55.34,55.34,0,0,1-10-.93l1.76-11.42a4.3,4.3,0,0,0-.19-2.11l.49-3.2a47.85,47.85,0,0,0,13,2,25,25,0,0,0,4.76-.42c4.61-.88,7.11-2.93,7.11-5.26,0-3.38-3.25-4-9.22-5.82s-12.39-5.37-12.39-15.66c0-.61,0-1.21.08-1.8v0l.53-3.44c2.41-10.12,11.81-16.8,23.94-19.12a54.65,54.65,0,0,1,10.41-1c3.06,0,5.68.27,8.18.48l-2.57,16.79A36.9,36.9,0,0,0,181.62,57.46Zm63.63-11.4-15,2.87-7.4,48.13-17.38,3.33,7.41-48.14-15,2.87,2.42-15.64,47.29-9Zm15.64,43.72-17.37,3.33,9.82-63.77L270.72,26Zm62.94-12-8.46,1.62L290.06,52.8c-.53,3.78-1.06,8.54-1.66,12.34l-3,19.68,0,.28-2.13.4-14.79,2.84,9.82-63.85L286,23,312,50.17c.53-3.78,1.06-8.54,1.66-12.34l3.18-20.66L333.65,14ZM364,71.91a32.46,32.46,0,0,1-6.14.6c-14,0-23.17-10.06-23.17-24.88,0-17.5,13.75-38.39,36-42.66a32.43,32.43,0,0,1,6.13-.6c14,0,23.1,10.07,23.1,24.9C400,46.77,386.23,67.65,364,71.91Z"/><path class="cls-3" d="M372.39,20.22a14.35,14.35,0,0,0-2.62.26c-10.2,2-17.61,12.61-17.61,23.81,0,7.31,3.85,12.35,10.29,12.35a13.69,13.69,0,0,0,2.63-.26c10.05-1.92,17.45-12.58,17.45-23.77C382.53,25.29,378.8,20.22,372.39,20.22Zm-8.13,31.87a9.14,9.14,0,0,1-1.81.19c-5.34,0-5.92-5.59-5.92-8,0-9.44,6.17-18,14.06-19.52a9.71,9.71,0,0,1,1.8-.18c5.21,0,5.78,5.61,5.78,8C378.17,42,372.06,50.6,364.26,52.09Z"/><path class="cls-4" d="M70.55,158.15a4.45,4.45,0,0,0-3-1.2,4.76,4.76,0,0,0-.83.08l-5.34,1,3.14-20.53a4.5,4.5,0,0,0,.07-.83,4.4,4.4,0,0,0-3.29-4.26l-1.9.4-11.6,2.22a4.41,4.41,0,0,0-1.65,2.82l-4,26.24-7-23.65a4.42,4.42,0,0,0-4.24-3.17,4,4,0,0,0-.84.08l-5.79,1.11a4.41,4.41,0,0,0-3.07,2.25L.53,179.26a4.42,4.42,0,0,0,3.89,6.52,4,4,0,0,0,.84-.08l10.74-2a4.45,4.45,0,0,0,3.15-2.42L20.24,179l5.8-1.11a4.42,4.42,0,0,0,4.18,3,4,4,0,0,0,.83-.08l10.32-2a4.4,4.4,0,0,0,1.68-.71,4.36,4.36,0,0,0,2,.5,4.76,4.76,0,0,0,.83-.08L67,174.45a4,4,0,0,0,1.09-.37,4.4,4.4,0,0,0,2.45-3.3l1.35-8.73a4.45,4.45,0,0,0-1.31-3.86A.1.1,0,0,0,70.55,158.15ZM30.22,176.42l-.79-3.71L17.22,175l-2.06,4.26L4.42,181.36,25.1,142.82l5.8-1.11,9.64,32.73Zm36-6.31-21.14,4,5.45-35.62,9.65-1.85L56,163.58l11.49-2.2Z"/><polygon class="cls-4" points="21.33 166.45 27.79 165.22 25.99 156.79 21.33 166.45"/><path class="cls-4" d="M119.47,103.51a4.31,4.31,0,0,0-2.37-.7,4.39,4.39,0,0,0-1.8.39L100,110.1l-4.74,2.15-2.84,1.29-6.86,3.1a4.37,4.37,0,0,0-2.56,4V134a4.36,4.36,0,0,0,6.16,4l29.7-13.44a4.4,4.4,0,0,0,1.79-1.51,4.15,4.15,0,0,0,.32-.53,4.36,4.36,0,0,0,.43-1.52c0-.14,0-.28,0-.42V107.18A4.35,4.35,0,0,0,119.47,103.51Zm-2.37,15.25v1.76l-4.79,2.17-5.49,2.48L87.4,134V120.62l7.1-3.21,4.75-2.15,17.85-8.08v11.58Z"/></svg>